<?xml version="1.0" standalone="yes"?>

<svg version="1.1" viewBox="0.0 0.0 680.501312335958 394.0" fill="none" stroke="none" stroke-linecap="square" stroke-miterlimit="10" xmlns="http://www.w3.org/2000/svg" xmlns:xlink="http://www.w3.org/1999/xlink"><clipPath id="p.0"><path d="m0 0l680.50134 0l0 394.0l-680.50134 0l0 -394.0z" clip-rule="nonzero"></path></clipPath><g clip-path="url(#p.0)"><path fill="#000000" fill-opacity="0.0" d="m0 0l680.50134 0l0 394.0l-680.50134 0z" fill-rule="evenodd"></path><path fill="#cfe2f3" d="m0.51968503 24.203413l678.8031 0l0 368.75592l-678.8031 0z" fill-rule="evenodd"></path><path stroke="#000000" stroke-width="1.0" stroke-linejoin="round" stroke-linecap="butt" d="m0.51968503 24.203413l678.8031 0l0 368.75592l-678.8031 0z" fill-rule="evenodd"></path><path fill="#000000" fill-opacity="0.0" d="m339.92126 24.203413l0 368.75592" fill-rule="evenodd"></path><path stroke="#000000" stroke-width="1.0" stroke-linejoin="round" stroke-linecap="butt" d="m339.92126 24.203413l0 368.75592" fill-rule="evenodd"></path><path fill="#000000" fill-opacity="0.0" d="m0.51968503 208.58136l678.8031 0" fill-rule="evenodd"></path><path stroke="#000000" stroke-width="1.0" stroke-linejoin="round" stroke-linecap="butt" d="m0.51968503 208.58136l678.8031 0" fill-rule="evenodd"></path><path fill="#000000" fill-opacity="0.0" d="m311.08136 204.46063l38.11023 0l0 47.37007l-38.11023 0z" fill-rule="evenodd"></path><path fill="#000000" d="m320.8626 224.6775q0 -2.421875 0.5 -3.890625q0.5 -1.46875 1.46875 -2.265625q0.984375 -0.796875 2.46875 -0.796875q1.09375 0 1.921875 0.4375q0.828125 0.4375 1.359375 1.28125q0.546875 0.828125 0.84375 2.015625q0.3125 1.1875 0.3125 3.21875q0 2.390625 -0.5 3.859375q-0.484375 1.46875 -1.46875 2.28125q-0.96875 0.796875 -2.46875 0.796875q-1.96875 0 -3.078125 -1.40625q-1.359375 -1.703125 -1.359375 -5.53125zm1.71875 0q0 3.34375 0.78125 4.453125q0.796875 1.109375 1.9375 1.109375q1.15625 0 1.9375 -1.109375q0.78125 -1.125 0.78125 -4.453125q0 -3.359375 -0.78125 -4.46875q-0.78125 -1.109375 -1.953125 -1.109375q-1.15625 0 -1.828125 0.984375q-0.875 1.234375 -0.875 4.59375z" fill-rule="nonzero"></path><path fill="#000000" fill-opacity="0.0" d="m0 170.47113l63.874016 0l0 36.06299l-63.874016 0z" fill-rule="evenodd"></path><path fill="#000000" d="m19.03125 191.46925l-8.96875 0l0 -1.5625l8.96875 0l0 1.5625zm7.9418335 5.921875l-1.671875 0l0 -10.640625q-0.59375 0.578125 -1.578125 1.15625q-0.984375 0.5625 -1.765625 0.859375l0 -1.625q1.40625 -0.65625 2.453125 -1.59375q1.046875 -0.9375 1.484375 -1.8125l1.078125 0l0 13.65625zm6.656967 -7.375q-1.046875 -0.375 -1.546875 -1.078125q-0.5 -0.71875 -0.5 -1.703125q0 -1.484375 1.0625 -2.484375q1.078125 -1.015625 2.84375 -1.015625q1.78125 0 2.859375 1.03125q1.09375 1.03125 1.09375 2.515625q0 0.953125 -0.5 1.65625q-0.484375 0.703125 -1.5 1.078125q1.25 0.40625 1.90625 1.3125q0.65625 0.90625 0.65625 2.171875q0 1.75 -1.234375 2.9375q-1.234375 1.1875 -3.25 1.1875q-2.015625 0 -3.25 -1.1875q-1.234375 -1.203125 -1.234375 -2.984375q0 -1.328125 0.671875 -2.21875q0.671875 -0.890625 1.921875 -1.21875zm-0.328125 -2.828125q0 0.96875 0.609375 1.578125q0.625 0.609375 1.625 0.609375q0.953125 0 1.5625 -0.609375q0.625 -0.609375 0.625 -1.484375q0 -0.921875 -0.640625 -1.546875q-0.625 -0.625 -1.578125 -0.625q-0.953125 0 -1.578125 0.609375q-0.625 0.609375 -0.625 1.46875zm-0.546875 6.28125q0 0.71875 0.328125 1.390625q0.34375 0.65625 1.015625 1.03125q0.671875 0.359375 1.4375 0.359375q1.203125 0 1.984375 -0.765625q0.78125 -0.78125 0.78125 -1.96875q0 -1.203125 -0.8125 -1.984375q-0.796875 -0.796875 -2.0 -0.796875q-1.1875 0 -1.96875 0.78125q-0.765625 0.78125 -0.765625 1.953125zm8.672592 -2.78125q0 -2.421875 0.5 -3.890625q0.5 -1.46875 1.46875 -2.265625q0.984375 -0.796875 2.46875 -0.796875q1.09375 0 1.921875 0.4375q0.828125 0.4375 1.359375 1.28125q0.546875 0.828125 0.84375 2.015625q0.3125 1.1875 0.3125 3.21875q0 2.390625 -0.5 3.859375q-0.484375 1.46875 -1.46875 2.28125q-0.96875 0.796875 -2.46875 0.796875q-1.96875 0 -3.078125 -1.40625q-1.359375 -1.703125 -1.359375 -5.53125zm1.71875 0q0 3.34375 0.78125 4.453125q0.796875 1.109375 1.9375 1.109375q1.15625 0 1.9375 -1.109375q0.78125 -1.125 0.78125 -4.453125q0 -3.359375 -0.78125 -4.46875q-0.78125 -1.109375 -1.953125 -1.109375q-1.15625 0 -1.828125 0.984375q-0.875 1.234375 -0.875 4.59375z" fill-rule="nonzero"></path><path fill="#000000" fill-opacity="0.0" d="m627.2992 170.47244l53.19684 0l0 36.06299l-53.19684 0z" fill-rule="evenodd"></path><path fill="#000000" d="m643.3773 197.39244l-1.671875 0l0 -10.640625q-0.59375 0.578125 -1.578125 1.15625q-0.984375 0.5625 -1.765625 0.859375l0 -1.625q1.40625 -0.65625 2.453125 -1.59375q1.046875 -0.9375 1.484375 -1.8125l1.078125 0l0 13.65625zm6.6569824 -7.375q-1.046875 -0.375 -1.546875 -1.078125q-0.5 -0.71875 -0.5 -1.703125q0 -1.484375 1.0625 -2.484375q1.078125 -1.015625 2.84375 -1.015625q1.78125 0 2.859375 1.03125q1.09375 1.03125 1.09375 2.515625q0 0.953125 -0.5 1.65625q-0.484375 0.703125 -1.5 1.078125q1.25 0.40625 1.90625 1.3125q0.65625 0.90625 0.65625 2.171875q0 1.75 -1.234375 2.9375q-1.234375 1.1875 -3.25 1.1875q-2.015625 0 -3.25 -1.1875q-1.234375 -1.203125 -1.234375 -2.984375q0 -1.328125 0.671875 -2.21875q0.671875 -0.890625 1.921875 -1.21875zm-0.328125 -2.828125q0 0.96875 0.609375 1.578125q0.625 0.609375 1.625 0.609375q0.953125 0 1.5625 -0.609375q0.625 -0.609375 0.625 -1.484375q0 -0.921875 -0.640625 -1.546875q-0.625 -0.625 -1.578125 -0.625q-0.953125 0 -1.578125 0.609375q-0.625 0.609375 -0.625 1.46875zm-0.546875 6.28125q0 0.71875 0.328125 1.390625q0.34375 0.65625 1.015625 1.03125q0.671875 0.359375 1.4375 0.359375q1.203125 0 1.984375 -0.765625q0.78125 -0.78125 0.78125 -1.96875q0 -1.203125 -0.8125 -1.984375q-0.796875 -0.796875 -2.0 -0.796875q-1.1875 0 -1.96875 0.78125q-0.765625 0.78125 -0.765625 1.953125zm8.672607 -2.78125q0 -2.421875 0.5 -3.890625q0.5 -1.46875 1.46875 -2.265625q0.984375 -0.796875 2.46875 -0.796875q1.09375 0 1.921875 0.4375q0.828125 0.4375 1.359375 1.28125q0.546875 0.828125 0.84375 2.015625q0.3125 1.1875 0.3125 3.21875q0 2.390625 -0.5 3.859375q-0.484375 1.46875 -1.46875 2.28125q-0.96875 0.796875 -2.46875 0.796875q-1.96875 0 -3.078125 -1.40625q-1.359375 -1.703125 -1.359375 -5.53125zm1.71875 0q0 3.34375 0.78125 4.453125q0.796875 1.109375 1.9375 1.109375q1.15625 0 1.9375 -1.109375q0.78125 -1.125 0.78125 -4.453125q0 -3.359375 -0.78125 -4.46875q-0.78125 -1.109375 -1.953125 -1.109375q-1.15625 0 -1.828125 0.984375q-0.875 1.234375 -0.875 4.59375z" fill-rule="nonzero"></path><path fill="#000000" fill-opacity="0.0" d="m339.92126 350.7257l55.62204 0l0 42.236237l-55.62204 0z" fill-rule="evenodd"></path><path fill="#000000" d="m358.9525 371.72385l-8.96875 0l0 -1.5625l8.96875 0l0 1.5625zm1.9105835 2.78125l1.59375 -0.15625q0.203125 1.140625 0.78125 1.65625q0.578125 0.5 1.484375 0.5q0.765625 0 1.34375 -0.34375q0.578125 -0.359375 0.953125 -0.953125q0.375 -0.59375 0.625 -1.59375q0.25 -1.0 0.25 -2.03125q0 -0.109375 -0.015625 -0.34375q-0.5 0.796875 -1.375 1.296875q-0.859375 0.5 -1.875 0.5q-1.6875 0 -2.859375 -1.21875q-1.171875 -1.234375 -1.171875 -3.234375q0 -2.078125 1.21875 -3.328125q1.234375 -1.265625 3.0625 -1.265625q1.328125 0 2.421875 0.71875q1.109375 0.703125 1.671875 2.03125q0.578125 1.328125 0.578125 3.828125q0 2.609375 -0.578125 4.15625q-0.5625 1.546875 -1.6875 2.359375q-1.109375 0.796875 -2.609375 0.796875q-1.59375 0 -2.609375 -0.890625q-1.0 -0.890625 -1.203125 -2.484375zm6.828125 -6.0q0 -1.4375 -0.765625 -2.28125q-0.765625 -0.859375 -1.84375 -0.859375q-1.109375 0 -1.9375 0.921875q-0.828125 0.90625 -0.828125 2.34375q0 1.3125 0.78125 2.125q0.796875 0.796875 1.9375 0.796875q1.171875 0 1.90625 -0.796875q0.75 -0.8125 0.75 -2.25zm3.281952 2.4375q0 -2.421875 0.5 -3.890625q0.5 -1.46875 1.46875 -2.265625q0.984375 -0.796875 2.46875 -0.796875q1.09375 0 1.921875 0.4375q0.828125 0.4375 1.359375 1.28125q0.546875 0.828125 0.84375 2.015625q0.3125 1.1875 0.3125 3.21875q0 2.390625 -0.5 3.859375q-0.484375 1.46875 -1.46875 2.28125q-0.96875 0.796875 -2.46875 0.796875q-1.96875 0 -3.078125 -1.40625q-1.359375 -1.703125 -1.359375 -5.53125zm1.71875 0q0 3.34375 0.78125 4.453125q0.796875 1.109375 1.9375 1.109375q1.15625 0 1.9375 -1.109375q0.78125 -1.125 0.78125 -4.453125q0 -3.359375 -0.78125 -4.46875q-0.78125 -1.109375 -1.953125 -1.109375q-1.15625 0 -1.828125 0.984375q-0.875 1.234375 -0.875 4.59375z" fill-rule="nonzero"></path><path fill="#6aa84f" d="m35.143627 65.77655l5.9255753 0l0 -6.2959175l5.578129 0l0 6.2959175l5.925579 0l0 5.5781326l-5.925579 0l0 6.2959213l-5.578129 0l0 -6.2959213l-5.9255753 0z" fill-rule="evenodd"></path><path stroke="#000000" stroke-width="1.0" stroke-linejoin="round" stroke-linecap="butt" d="m35.143627 65.77655l5.9255753 0l0 -6.2959175l5.578129 0l0 6.2959175l5.925579 0l0 5.5781326l-5.925579 0l0 6.2959213l-5.578129 0l0 -6.2959213l-5.9255753 0z" fill-rule="evenodd"></path><path fill="#6aa84f" d="m205.10426 65.77655l5.9255676 0l0 -6.2959175l5.578125 0l0 6.2959175l5.925583 0l0 5.5781326l-5.925583 0l0 6.2959213l-5.578125 0l0 -6.2959213l-5.9255676 0z" fill-rule="evenodd"></path><path stroke="#000000" stroke-width="1.0" stroke-linejoin="round" stroke-linecap="butt" d="m205.10426 65.77655l5.9255676 0l0 -6.2959175l5.578125 0l0 6.2959175l5.925583 0l0 5.5781326l-5.925583 0l0 6.2959213l-5.578125 0l0 -6.2959213l-5.9255676 0z" fill-rule="evenodd"></path><path fill="#6aa84f" d="m375.06488 65.77655l5.9255676 0l0 -6.2959175l5.5781555 0l0 6.2959175l5.9255676 0l0 5.5781326l-5.9255676 0l0 6.2959213l-5.5781555 0l0 -6.2959213l-5.9255676 0z" fill-rule="evenodd"></path><path stroke="#000000" stroke-width="1.0" stroke-linejoin="round" stroke-linecap="butt" d="m375.06488 65.77655l5.9255676 0l0 -6.2959175l5.5781555 0l0 6.2959175l5.9255676 0l0 5.5781326l-5.9255676 0l0 6.2959213l-5.5781555 0l0 -6.2959213l-5.9255676 0z" fill-rule="evenodd"></path><path fill="#6aa84f" d="m120.12394 65.77655l5.9255753 0l0 -6.2959175l5.578125 0l0 6.2959175l5.925583 0l0 5.5781326l-5.925583 0l0 6.2959213l-5.578125 0l0 -6.2959213l-5.9255753 0z" fill-rule="evenodd"></path><path stroke="#000000" stroke-width="1.0" stroke-linejoin="round" stroke-linecap="butt" d="m120.12394 65.77655l5.9255753 0l0 -6.2959175l5.578125 0l0 6.2959175l5.925583 0l0 5.5781326l-5.925583 0l0 6.2959213l-5.578125 0l0 -6.2959213l-5.9255753 0z" fill-rule="evenodd"></path><path fill="#000000" fill-opacity="0.0" d="m339.92126 24.203413l49.13385 0l0 47.37008l-49.13385 0z" fill-rule="evenodd"></path><path fill="#000000" d="m349.96814 47.982784l1.59375 -0.15625q0.203125 1.140625 0.78125 1.65625q0.578125 0.5 1.484375 0.5q0.765625 0 1.34375 -0.34375q0.578125 -0.359375 0.953125 -0.953125q0.375 -0.59375 0.625 -1.59375q0.25 -1.0 0.25 -2.03125q0 -0.109375 -0.015625 -0.34375q-0.5 0.796875 -1.375 1.296875q-0.859375 0.5 -1.875 0.5q-1.6875 0 -2.859375 -1.21875q-1.171875 -1.234375 -1.171875 -3.234375q0 -2.078125 1.21875 -3.328125q1.234375 -1.265625 3.0625 -1.265625q1.328125 0 2.421875 0.71875q1.109375 0.703125 1.671875 2.03125q0.578125 1.328125 0.578125 3.828125q0 2.609375 -0.578125 4.15625q-0.5625 1.546875 -1.6875 2.359375q-1.109375 0.796875 -2.609375 0.796875q-1.59375 0 -2.609375 -0.890625q-1.0 -0.890625 -1.203125 -2.484375zm6.828125 -6.0q0 -1.4375 -0.765625 -2.28125q-0.765625 -0.859375 -1.84375 -0.859375q-1.109375 0 -1.9375 0.921875q-0.828125 0.90625 -0.828125 2.34375q0 1.3125 0.78125 2.125q0.796875 0.796875 1.9375 0.796875q1.171875 0 1.90625 -0.796875q0.75 -0.8125 0.75 -2.25zm3.281952 2.4375q0 -2.421875 0.5 -3.890625q0.5 -1.46875 1.46875 -2.265625q0.984375 -0.796875 2.46875 -0.796875q1.09375 0 1.921875 0.4375q0.828125 0.4375 1.359375 1.28125q0.546875 0.828125 0.84375 2.015625q0.3125 1.1875 0.3125 3.21875q0 2.390625 -0.5 3.859375q-0.484375 1.46875 -1.46875 2.28125q-0.96875 0.796875 -2.46875 0.796875q-1.96875 0 -3.078125 -1.40625q-1.359375 -1.703125 -1.359375 -5.53125zm1.71875 0q0 3.34375 0.78125 4.453125q0.796875 1.109375 1.9375 1.109375q1.15625 0 1.9375 -1.109375q0.78125 -1.125 0.78125 -4.453125q0 -3.359375 -0.78125 -4.46875q-0.78125 -1.109375 -1.953125 -1.109375q-1.15625 0 -1.828125 0.984375q-0.875 1.234375 -0.875 4.59375z" fill-rule="nonzero"></path><path fill="#6aa84f" d="m290.08325 65.77655l5.925598 0l0 -6.2959175l5.578125 0l0 6.2959175l5.9255676 0l0 5.5781326l-5.9255676 0l0 6.2959213l-5.578125 0l0 -6.2959213l-5.925598 0z" fill-rule="evenodd"></path><path stroke="#000000" stroke-width="1.0" stroke-linejoin="round" stroke-linecap="butt" d="m290.08325 65.77655l5.925598 0l0 -6.2959175l5.578125 0l0 6.2959175l5.9255676 0l0 5.5781326l-5.9255676 0l0 6.2959213l-5.578125 0l0 -6.2959213l-5.925598 0z" fill-rule="evenodd"></path><path fill="#6aa84f" d="m460.0452 65.77655l5.9255676 0l0 -6.2959175l5.5781555 0l0 6.2959175l5.9255676 0l0 5.5781326l-5.9255676 0l0 6.2959213l-5.5781555 0l0 -6.2959213l-5.9255676 0z" fill-rule="evenodd"></path><path stroke="#000000" stroke-width="1.0" stroke-linejoin="round" stroke-linecap="butt" d="m460.0452 65.77655l5.9255676 0l0 -6.2959175l5.5781555 0l0 6.2959175l5.9255676 0l0 5.5781326l-5.9255676 0l0 6.2959213l-5.5781555 0l0 -6.2959213l-5.9255676 0z" fill-rule="evenodd"></path><path fill="#6aa84f" d="m545.02686 65.77655l5.925537 0l0 -6.2959175l5.578125 0l0 6.2959175l5.925598 0l0 5.5781326l-5.925598 0l0 6.2959213l-5.578125 0l0 -6.2959213l-5.925537 0z" fill-rule="evenodd"></path><path stroke="#000000" stroke-width="1.0" stroke-linejoin="round" stroke-linecap="butt" d="m545.02686 65.77655l5.925537 0l0 -6.2959175l5.578125 0l0 6.2959175l5.925598 0l0 5.5781326l-5.925598 0l0 6.2959213l-5.578125 0l0 -6.2959213l-5.925537 0z" fill-rule="evenodd"></path><path fill="#6aa84f" d="m630.0085 65.77655l5.925537 0l0 -6.2959175l5.578125 0l0 6.2959175l5.925598 0l0 5.5781326l-5.925598 0l0 6.2959213l-5.578125 0l0 -6.2959213l-5.925537 0z" fill-rule="evenodd"></path><path stroke="#000000" stroke-width="1.0" stroke-linejoin="round" stroke-linecap="butt" d="m630.0085 65.77655l5.925537 0l0 -6.2959175l5.578125 0l0 6.2959175l5.925598 0l0 5.5781326l-5.925598 0l0 6.2959213l-5.578125 0l0 -6.2959213l-5.925537 0z" fill-rule="evenodd"></path><path fill="#6aa84f" d="m35.66331 250.92354l5.925579 0l0 -6.295929l5.578129 0l0 6.295929l5.9255753 0l0 5.5781097l-5.9255753 0l0 6.295929l-5.578129 0l0 -6.295929l-5.925579 0z" fill-rule="evenodd"></path><path stroke="#000000" stroke-width="1.0" stroke-linejoin="round" stroke-linecap="butt" d="m35.66331 250.92354l5.925579 0l0 -6.295929l5.578129 0l0 6.295929l5.9255753 0l0 5.5781097l-5.9255753 0l0 6.295929l-5.578129 0l0 -6.295929l-5.925579 0z" fill-rule="evenodd"></path><path fill="#6aa84f" d="m205.62395 250.92354l5.9255676 0l0 -6.295929l5.578125 0l0 6.295929l5.925583 0l0 5.5781097l-5.925583 0l0 6.295929l-5.578125 0l0 -6.295929l-5.9255676 0z" fill-rule="evenodd"></path><path stroke="#000000" stroke-width="1.0" stroke-linejoin="round" stroke-linecap="butt" d="m205.62395 250.92354l5.9255676 0l0 -6.295929l5.578125 0l0 6.295929l5.925583 0l0 5.5781097l-5.925583 0l0 6.295929l-5.578125 0l0 -6.295929l-5.9255676 0z" fill-rule="evenodd"></path><path fill="#6aa84f" d="m375.58456 250.92354l5.925598 0l0 -6.295929l5.578125 0l0 6.295929l5.9255676 0l0 5.5781097l-5.9255676 0l0 6.295929l-5.578125 0l0 -6.295929l-5.925598 0z" fill-rule="evenodd"></path><path stroke="#000000" stroke-width="1.0" stroke-linejoin="round" stroke-linecap="butt" d="m375.58456 250.92354l5.925598 0l0 -6.295929l5.578125 0l0 6.295929l5.9255676 0l0 5.5781097l-5.9255676 0l0 6.295929l-5.578125 0l0 -6.295929l-5.925598 0z" fill-rule="evenodd"></path><path fill="#6aa84f" d="m120.64362 250.92354l5.925583 0l0 -6.295929l5.5781326 0l0 6.295929l5.9255676 0l0 5.5781097l-5.9255676 0l0 6.295929l-5.5781326 0l0 -6.295929l-5.925583 0z" fill-rule="evenodd"></path><path stroke="#000000" stroke-width="1.0" stroke-linejoin="round" stroke-linecap="butt" d="m120.64362 250.92354l5.925583 0l0 -6.295929l5.5781326 0l0 6.295929l5.9255676 0l0 5.5781097l-5.9255676 0l0 6.295929l-5.5781326 0l0 -6.295929l-5.925583 0z" fill-rule="evenodd"></path><path fill="#6aa84f" d="m290.60294 250.92354l5.925598 0l0 -6.295929l5.578125 0l0 6.295929l5.9255676 0l0 5.5781097l-5.9255676 0l0 6.295929l-5.578125 0l0 -6.295929l-5.925598 0z" fill-rule="evenodd"></path><path stroke="#000000" stroke-width="1.0" stroke-linejoin="round" stroke-linecap="butt" d="m290.60294 250.92354l5.925598 0l0 -6.295929l5.578125 0l0 6.295929l5.9255676 0l0 5.5781097l-5.9255676 0l0 6.295929l-5.578125 0l0 -6.295929l-5.925598 0z" fill-rule="evenodd"></path><path fill="#6aa84f" d="m460.56488 250.92354l5.9255676 0l0 -6.295929l5.5781555 0l0 6.295929l5.9255676 0l0 5.5781097l-5.9255676 0l0 6.295929l-5.5781555 0l0 -6.295929l-5.9255676 0z" fill-rule="evenodd"></path><path stroke="#000000" stroke-width="1.0" stroke-linejoin="round" stroke-linecap="butt" d="m460.56488 250.92354l5.9255676 0l0 -6.295929l5.5781555 0l0 6.295929l5.9255676 0l0 5.5781097l-5.9255676 0l0 6.295929l-5.5781555 0l0 -6.295929l-5.9255676 0z" fill-rule="evenodd"></path><path fill="#6aa84f" d="m545.5465 250.92354l5.925598 0l0 -6.295929l5.578125 0l0 6.295929l5.925537 0l0 5.5781097l-5.925537 0l0 6.295929l-5.578125 0l0 -6.295929l-5.925598 0z" fill-rule="evenodd"></path><path stroke="#000000" stroke-width="1.0" stroke-linejoin="round" stroke-linecap="butt" d="m545.5465 250.92354l5.925598 0l0 -6.295929l5.578125 0l0 6.295929l5.925537 0l0 5.5781097l-5.925537 0l0 6.295929l-5.578125 0l0 -6.295929l-5.925598 0z" fill-rule="evenodd"></path><path fill="#6aa84f" d="m630.52814 250.92354l5.925598 0l0 -6.295929l5.578125 0l0 6.295929l5.925537 0l0 5.5781097l-5.925537 0l0 6.295929l-5.578125 0l0 -6.295929l-5.925598 0z" fill-rule="evenodd"></path><path stroke="#000000" stroke-width="1.0" stroke-linejoin="round" stroke-linecap="butt" d="m630.52814 250.92354l5.925598 0l0 -6.295929l5.578125 0l0 6.295929l5.925537 0l0 5.5781097l-5.925537 0l0 6.295929l-5.578125 0l0 -6.295929l-5.925598 0z" fill-rule="evenodd"></path><path fill="#6aa84f" d="m35.66331 156.43404l5.925579 0l0 -6.295929l5.578129 0l0 6.295929l5.9255753 0l0 5.578125l-5.9255753 0l0 6.2959137l-5.578129 0l0 -6.2959137l-5.925579 0z" fill-rule="evenodd"></path><path stroke="#000000" stroke-width="1.0" stroke-linejoin="round" stroke-linecap="butt" d="m35.66331 156.43404l5.925579 0l0 -6.295929l5.578129 0l0 6.295929l5.9255753 0l0 5.578125l-5.9255753 0l0 6.2959137l-5.578129 0l0 -6.2959137l-5.925579 0z" fill-rule="evenodd"></path><path fill="#6aa84f" d="m205.62395 156.43404l5.9255676 0l0 -6.295929l5.578125 0l0 6.295929l5.925583 0l0 5.578125l-5.925583 0l0 6.2959137l-5.578125 0l0 -6.2959137l-5.9255676 0z" fill-rule="evenodd"></path><path stroke="#000000" stroke-width="1.0" stroke-linejoin="round" stroke-linecap="butt" d="m205.62395 156.43404l5.9255676 0l0 -6.295929l5.578125 0l0 6.295929l5.925583 0l0 5.578125l-5.925583 0l0 6.2959137l-5.578125 0l0 -6.2959137l-5.9255676 0z" fill-rule="evenodd"></path><path fill="#6aa84f" d="m375.58456 156.43404l5.925598 0l0 -6.295929l5.578125 0l0 6.295929l5.9255676 0l0 5.578125l-5.9255676 0l0 6.2959137l-5.578125 0l0 -6.2959137l-5.925598 0z" fill-rule="evenodd"></path><path stroke="#000000" stroke-width="1.0" stroke-linejoin="round" stroke-linecap="butt" d="m375.58456 156.43404l5.925598 0l0 -6.295929l5.578125 0l0 6.295929l5.9255676 0l0 5.578125l-5.9255676 0l0 6.2959137l-5.578125 0l0 -6.2959137l-5.925598 0z" fill-rule="evenodd"></path><path fill="#6aa84f" d="m120.64362 156.43404l5.925583 0l0 -6.295929l5.5781326 0l0 6.295929l5.9255676 0l0 5.578125l-5.9255676 0l0 6.2959137l-5.5781326 0l0 -6.2959137l-5.925583 0z" fill-rule="evenodd"></path><path stroke="#000000" stroke-width="1.0" stroke-linejoin="round" stroke-linecap="butt" d="m120.64362 156.43404l5.925583 0l0 -6.295929l5.5781326 0l0 6.295929l5.9255676 0l0 5.578125l-5.9255676 0l0 6.2959137l-5.5781326 0l0 -6.2959137l-5.925583 0z" fill-rule="evenodd"></path><path fill="#6aa84f" d="m290.60294 156.43404l5.925598 0l0 -6.295929l5.578125 0l0 6.295929l5.9255676 0l0 5.578125l-5.9255676 0l0 6.2959137l-5.578125 0l0 -6.2959137l-5.925598 0z" fill-rule="evenodd"></path><path stroke="#000000" stroke-width="1.0" stroke-linejoin="round" stroke-linecap="butt" d="m290.60294 156.43404l5.925598 0l0 -6.295929l5.578125 0l0 6.295929l5.9255676 0l0 5.578125l-5.9255676 0l0 6.2959137l-5.578125 0l0 -6.2959137l-5.925598 0z" fill-rule="evenodd"></path><path fill="#6aa84f" d="m460.56488 156.43404l5.9255676 0l0 -6.295929l5.5781555 0l0 6.295929l5.9255676 0l0 5.578125l-5.9255676 0l0 6.2959137l-5.5781555 0l0 -6.2959137l-5.9255676 0z" fill-rule="evenodd"></path><path stroke="#000000" stroke-width="1.0" stroke-linejoin="round" stroke-linecap="butt" d="m460.56488 156.43404l5.9255676 0l0 -6.295929l5.5781555 0l0 6.295929l5.9255676 0l0 5.578125l-5.9255676 0l0 6.2959137l-5.5781555 0l0 -6.2959137l-5.9255676 0z" fill-rule="evenodd"></path><path fill="#6aa84f" d="m545.5465 156.43404l5.925598 0l0 -6.295929l5.578125 0l0 6.295929l5.925537 0l0 5.578125l-5.925537 0l0 6.2959137l-5.578125 0l0 -6.2959137l-5.925598 0z" fill-rule="evenodd"></path><path stroke="#000000" stroke-width="1.0" stroke-linejoin="round" stroke-linecap="butt" d="m545.5465 156.43404l5.925598 0l0 -6.295929l5.578125 0l0 6.295929l5.925537 0l0 5.578125l-5.925537 0l0 6.2959137l-5.578125 0l0 -6.2959137l-5.925598 0z" fill-rule="evenodd"></path><path fill="#6aa84f" d="m630.52814 156.43404l5.925598 0l0 -6.295929l5.578125 0l0 6.295929l5.925537 0l0 5.578125l-5.925537 0l0 6.2959137l-5.578125 0l0 -6.2959137l-5.925598 0z" fill-rule="evenodd"></path><path stroke="#000000" stroke-width="1.0" stroke-linejoin="round" stroke-linecap="butt" d="m630.52814 156.43404l5.925598 0l0 -6.295929l5.578125 0l0 6.295929l5.925537 0l0 5.578125l-5.925537 0l0 6.2959137l-5.578125 0l0 -6.2959137l-5.925598 0z" fill-rule="evenodd"></path><path fill="#6aa84f" d="m35.143627 345.4117l5.9255753 0l0 -6.2958984l5.578129 0l0 6.2958984l5.925579 0l0 5.578125l-5.925579 0l0 6.295929l-5.578129 0l0 -6.295929l-5.9255753 0z" fill-rule="evenodd"></path><path stroke="#000000" stroke-width="1.0" stroke-linejoin="round" stroke-linecap="butt" d="m35.143627 345.4117l5.9255753 0l0 -6.2958984l5.578129 0l0 6.2958984l5.925579 0l0 5.578125l-5.925579 0l0 6.295929l-5.578129 0l0 -6.295929l-5.9255753 0z" fill-rule="evenodd"></path><path fill="#6aa84f" d="m205.10426 345.4117l5.9255676 0l0 -6.2958984l5.578125 0l0 6.2958984l5.925583 0l0 5.578125l-5.925583 0l0 6.295929l-5.578125 0l0 -6.295929l-5.9255676 0z" fill-rule="evenodd"></path><path stroke="#000000" stroke-width="1.0" stroke-linejoin="round" stroke-linecap="butt" d="m205.10426 345.4117l5.9255676 0l0 -6.2958984l5.578125 0l0 6.2958984l5.925583 0l0 5.578125l-5.925583 0l0 6.295929l-5.578125 0l0 -6.295929l-5.9255676 0z" fill-rule="evenodd"></path><path fill="#6aa84f" d="m375.06488 345.4117l5.9255676 0l0 -6.2958984l5.5781555 0l0 6.2958984l5.9255676 0l0 5.578125l-5.9255676 0l0 6.295929l-5.5781555 0l0 -6.295929l-5.9255676 0z" fill-rule="evenodd"></path><path stroke="#000000" stroke-width="1.0" stroke-linejoin="round" stroke-linecap="butt" d="m375.06488 345.4117l5.9255676 0l0 -6.2958984l5.5781555 0l0 6.2958984l5.9255676 0l0 5.578125l-5.9255676 0l0 6.295929l-5.5781555 0l0 -6.295929l-5.9255676 0z" fill-rule="evenodd"></path><path fill="#6aa84f" d="m120.12394 345.4117l5.9255753 0l0 -6.2958984l5.578125 0l0 6.2958984l5.925583 0l0 5.578125l-5.925583 0l0 6.295929l-5.578125 0l0 -6.295929l-5.9255753 0z" fill-rule="evenodd"></path><path stroke="#000000" stroke-width="1.0" stroke-linejoin="round" stroke-linecap="butt" d="m120.12394 345.4117l5.9255753 0l0 -6.2958984l5.578125 0l0 6.2958984l5.925583 0l0 5.578125l-5.925583 0l0 6.295929l-5.578125 0l0 -6.295929l-5.9255753 0z" fill-rule="evenodd"></path><path fill="#6aa84f" d="m290.08325 345.4117l5.925598 0l0 -6.2958984l5.578125 0l0 6.2958984l5.9255676 0l0 5.578125l-5.9255676 0l0 6.295929l-5.578125 0l0 -6.295929l-5.925598 0z" fill-rule="evenodd"></path><path stroke="#000000" stroke-width="1.0" stroke-linejoin="round" stroke-linecap="butt" d="m290.08325 345.4117l5.925598 0l0 -6.2958984l5.578125 0l0 6.2958984l5.9255676 0l0 5.578125l-5.9255676 0l0 6.295929l-5.578125 0l0 -6.295929l-5.925598 0z" fill-rule="evenodd"></path><path fill="#6aa84f" d="m460.0452 345.4117l5.9255676 0l0 -6.2958984l5.5781555 0l0 6.2958984l5.9255676 0l0 5.578125l-5.9255676 0l0 6.295929l-5.5781555 0l0 -6.295929l-5.9255676 0z" fill-rule="evenodd"></path><path stroke="#000000" stroke-width="1.0" stroke-linejoin="round" stroke-linecap="butt" d="m460.0452 345.4117l5.9255676 0l0 -6.2958984l5.5781555 0l0 6.2958984l5.9255676 0l0 5.578125l-5.9255676 0l0 6.295929l-5.5781555 0l0 -6.295929l-5.9255676 0z" fill-rule="evenodd"></path><path fill="#6aa84f" d="m545.02686 345.4117l5.925537 0l0 -6.2958984l5.578125 0l0 6.2958984l5.925598 0l0 5.578125l-5.925598 0l0 6.295929l-5.578125 0l0 -6.295929l-5.925537 0z" fill-rule="evenodd"></path><path stroke="#000000" stroke-width="1.0" stroke-linejoin="round" stroke-linecap="butt" d="m545.02686 345.4117l5.925537 0l0 -6.2958984l5.578125 0l0 6.2958984l5.925598 0l0 5.578125l-5.925598 0l0 6.295929l-5.578125 0l0 -6.295929l-5.925537 0z" fill-rule="evenodd"></path><path fill="#6aa84f" d="m630.0085 345.4117l5.925537 0l0 -6.2958984l5.578125 0l0 6.2958984l5.925598 0l0 5.578125l-5.925598 0l0 6.295929l-5.578125 0l0 -6.295929l-5.925537 0z" fill-rule="evenodd"></path><path stroke="#000000" stroke-width="1.0" stroke-linejoin="round" stroke-linecap="butt" d="m630.0085 345.4117l5.925537 0l0 -6.2958984l5.578125 0l0 6.2958984l5.925598 0l0 5.578125l-5.925598 0l0 6.295929l-5.578125 0l0 -6.295929l-5.925537 0z" fill-rule="evenodd"></path><path fill="#cfe2f3" d="m96.1811 97.36614l16.724411 0l0 17.732285l-16.724411 0z" fill-rule="evenodd"></path><path stroke="#000000" stroke-width="1.0" stroke-linejoin="round" stroke-linecap="butt" d="m96.1811 97.36614l16.724411 0l0 17.732285l-16.724411 0z" fill-rule="evenodd"></path><path fill="#000000" fill-opacity="0.0" d="m108.51706 83.38976l30.425201 0l0 33.70079l-30.425201 0z" fill-rule="evenodd"></path><path fill="#000000" d="m121.89206 106.96601q0 -0.34375 0 -0.5q0 -0.984375 0.265625 -1.703125q0.21875 -0.546875 0.671875 -1.09375q0.328125 -0.390625 1.1875 -1.15625q0.875 -0.765625 1.125 -1.21875q0.265625 -0.453125 0.265625 -1.0q0 -0.96875 -0.765625 -1.703125q-0.75 -0.734375 -1.859375 -0.734375q-1.0625 0 -1.78125 0.671875q-0.703125 0.65625 -0.9375 2.078125l-1.71875 -0.203125q0.234375 -1.90625 1.375 -2.90625q1.15625 -1.015625 3.03125 -1.015625q2.0 0 3.1875 1.09375q1.1875 1.078125 1.1875 2.609375q0 0.890625 -0.421875 1.640625q-0.40625 0.75 -1.625 1.828125q-0.8125 0.734375 -1.0625 1.078125q-0.25 0.34375 -0.375 0.796875q-0.125 0.4375 -0.140625 1.4375l-1.609375 0zm-0.09375 3.34375l0 -1.90625l1.890625 0l0 1.90625l-1.890625 0z" fill-rule="nonzero"></path><path fill="#000000" fill-opacity="0.0" d="m575.55646 202.06824l104.944885 0l0 30.393707l-104.944885 0z" fill-rule="evenodd"></path><path fill="#000000" d="m585.9471 228.98824l0 -13.59375l1.796875 0l0 11.984375l6.703125 0l0 1.609375l-8.5 0zm9.610046 -4.921875q0 -2.734375 1.53125 -4.0625q1.265625 -1.09375 3.09375 -1.09375q2.03125 0 3.3125 1.34375q1.296875 1.328125 1.296875 3.671875q0 1.90625 -0.578125 3.0q-0.5625 1.078125 -1.65625 1.6875q-1.078125 0.59375 -2.375 0.59375q-2.0625 0 -3.34375 -1.328125q-1.28125 -1.328125 -1.28125 -3.8125zm1.71875 0q0 1.890625 0.828125 2.828125q0.828125 0.9375 2.078125 0.9375q1.25 0 2.0625 -0.9375q0.828125 -0.953125 0.828125 -2.890625q0 -1.828125 -0.828125 -2.765625q-0.828125 -0.9375 -2.0625 -0.9375q-1.25 0 -2.078125 0.9375q-0.828125 0.9375 -0.828125 2.828125zm9.281982 4.921875l0 -9.859375l1.5 0l0 1.40625q1.09375 -1.625 3.140625 -1.625q0.890625 0 1.640625 0.328125q0.75 0.3125 1.109375 0.84375q0.375 0.515625 0.53125 1.21875q0.09375 0.46875 0.09375 1.625l0 6.0625l-1.671875 0l0 -6.0q0 -1.015625 -0.203125 -1.515625q-0.1875 -0.515625 -0.6875 -0.8125q-0.5 -0.296875 -1.171875 -0.296875q-1.0625 0 -1.84375 0.671875q-0.765625 0.671875 -0.765625 2.578125l0 5.375l-1.671875 0zm10.078857 0.8125l1.609375 0.25q0.109375 0.75 0.578125 1.09375q0.609375 0.453125 1.6875 0.453125q1.171875 0 1.796875 -0.46875q0.625 -0.453125 0.859375 -1.28125q0.125 -0.515625 0.109375 -2.15625q-1.09375 1.296875 -2.71875 1.296875q-2.03125 0 -3.15625 -1.46875q-1.109375 -1.46875 -1.109375 -3.515625q0 -1.40625 0.515625 -2.59375q0.515625 -1.203125 1.484375 -1.84375q0.96875 -0.65625 2.265625 -0.65625q1.75 0 2.875 1.40625l0 -1.1875l1.546875 0l0 8.515625q0 2.3125 -0.46875 3.265625q-0.46875 0.96875 -1.484375 1.515625q-1.015625 0.5625 -2.5 0.5625q-1.765625 0 -2.859375 -0.796875q-1.078125 -0.796875 -1.03125 -2.390625zm1.375 -5.921875q0 1.953125 0.765625 2.84375q0.78125 0.890625 1.9375 0.890625q1.140625 0 1.921875 -0.890625q0.78125 -0.890625 0.78125 -2.78125q0 -1.8125 -0.8125 -2.71875q-0.796875 -0.921875 -1.921875 -0.921875q-1.109375 0 -1.890625 0.90625q-0.78125 0.890625 -0.78125 2.671875zm9.313232 -6.578125l0 -1.90625l1.671875 0l0 1.90625l-1.671875 0zm0 11.6875l0 -9.859375l1.671875 0l0 9.859375l-1.671875 0zm7.7854004 -1.5l0.234375 1.484375q-0.703125 0.140625 -1.265625 0.140625q-0.90625 0 -1.40625 -0.28125q-0.5 -0.296875 -0.703125 -0.75q-0.203125 -0.46875 -0.203125 -1.984375l0 -5.65625l-1.234375 0l0 -1.3125l1.234375 0l0 -2.4375l1.65625 -1.0l0 3.4375l1.6875 0l0 1.3125l-1.6875 0l0 5.75q0 0.71875 0.078125 0.921875q0.09375 0.203125 0.296875 0.328125q0.203125 0.125 0.578125 0.125q0.265625 0 0.734375 -0.078125zm7.9802246 1.5l0 -1.453125q-1.140625 1.671875 -3.125 1.671875q-0.859375 0 -1.625 -0.328125q-0.75 -0.34375 -1.125 -0.84375q-0.359375 -0.5 -0.515625 -1.234375q-0.09375 -0.5 -0.09375 -1.5625l0 -6.109375l1.671875 0l0 5.46875q0 1.3125 0.09375 1.765625q0.15625 0.65625 0.671875 1.03125q0.515625 0.375 1.265625 0.375q0.75 0 1.40625 -0.375q0.65625 -0.390625 0.921875 -1.046875q0.28125 -0.671875 0.28125 -1.9375l0 -5.28125l1.671875 0l0 9.859375l-1.5 0zm10.313171 0l0 -1.25q-0.9375 1.46875 -2.75 1.46875q-1.171875 0 -2.171875 -0.640625q-0.984375 -0.65625 -1.53125 -1.8125q-0.53125 -1.171875 -0.53125 -2.6875q0 -1.46875 0.484375 -2.671875q0.5 -1.203125 1.46875 -1.84375q0.984375 -0.640625 2.203125 -0.640625q0.890625 0 1.578125 0.375q0.703125 0.375 1.140625 0.984375l0 -4.875l1.65625 0l0 13.59375l-1.546875 0zm-5.28125 -4.921875q0 1.890625 0.796875 2.828125q0.8125 0.9375 1.890625 0.9375q1.09375 0 1.859375 -0.890625q0.765625 -0.890625 0.765625 -2.734375q0 -2.015625 -0.78125 -2.953125q-0.78125 -0.953125 -1.921875 -0.953125q-1.109375 0 -1.859375 0.90625q-0.75 0.90625 -0.75 2.859375zm16.016357 1.75l1.71875 0.21875q-0.40625 1.5 -1.515625 2.34375q-1.09375 0.828125 -2.8125 0.828125q-2.15625 0 -3.421875 -1.328125q-1.265625 -1.328125 -1.265625 -3.734375q0 -2.484375 1.265625 -3.859375q1.28125 -1.375 3.328125 -1.375q1.984375 0 3.234375 1.34375q1.25 1.34375 1.25 3.796875q0 0.140625 -0.015625 0.4375l-7.34375 0q0.09375 1.625 0.921875 2.484375q0.828125 0.859375 2.0625 0.859375q0.90625 0 1.546875 -0.46875q0.65625 -0.484375 1.046875 -1.546875zm-5.484375 -2.703125l5.5 0q-0.109375 -1.234375 -0.625 -1.859375q-0.796875 -0.96875 -2.078125 -0.96875q-1.140625 0 -1.9375 0.78125q-0.78125 0.765625 -0.859375 2.046875z" fill-rule="nonzero"></path><path fill="#000000" fill-opacity="0.0" d="m295.25723 -9.498688l89.35431 0l0 33.700787l-89.35431 0z" fill-rule="evenodd"></path><path fill="#000000" d="m305.64786 17.42131l0 -13.59375l1.796875 0l0 11.984375l6.703125 0l0 1.609375l-8.5 0zm16.672577 -1.21875q-0.9375 0.796875 -1.796875 1.125q-0.859375 0.3125 -1.84375 0.3125q-1.609375 0 -2.484375 -0.78125q-0.875 -0.796875 -0.875 -2.03125q0 -0.734375 0.328125 -1.328125q0.328125 -0.59375 0.859375 -0.953125q0.53125 -0.359375 1.203125 -0.546875q0.5 -0.140625 1.484375 -0.25q2.03125 -0.25 2.984375 -0.578125q0 -0.34375 0 -0.4375q0 -1.015625 -0.46875 -1.4375q-0.640625 -0.5625 -1.90625 -0.5625q-1.171875 0 -1.734375 0.40625q-0.5625 0.40625 -0.828125 1.46875l-1.640625 -0.234375q0.234375 -1.046875 0.734375 -1.6875q0.515625 -0.640625 1.46875 -0.984375q0.96875 -0.359375 2.25 -0.359375q1.265625 0 2.046875 0.296875q0.78125 0.296875 1.15625 0.75q0.375 0.453125 0.515625 1.140625q0.09375 0.421875 0.09375 1.53125l0 2.234375q0 2.328125 0.09375 2.953125q0.109375 0.609375 0.4375 1.171875l-1.75 0q-0.265625 -0.515625 -0.328125 -1.21875zm-0.140625 -3.71875q-0.90625 0.359375 -2.734375 0.625q-1.03125 0.140625 -1.453125 0.328125q-0.421875 0.1875 -0.65625 0.546875q-0.234375 0.359375 -0.234375 0.796875q0 0.671875 0.5 1.125q0.515625 0.4375 1.484375 0.4375q0.96875 0 1.71875 -0.421875q0.75 -0.4375 1.109375 -1.15625q0.265625 -0.578125 0.265625 -1.671875l0 -0.609375zm7.7351074 3.4375l0.234375 1.484375q-0.703125 0.140625 -1.265625 0.140625q-0.90625 0 -1.40625 -0.28125q-0.5 -0.296875 -0.703125 -0.75q-0.203125 -0.46875 -0.203125 -1.984375l0 -5.65625l-1.234375 0l0 -1.3125l1.234375 0l0 -2.4375l1.65625 -1.0l0 3.4375l1.6875 0l0 1.3125l-1.6875 0l0 5.75q0 0.71875 0.078125 0.921875q0.09375 0.203125 0.296875 0.328125q0.203125 0.125 0.578125 0.125q0.265625 0 0.734375 -0.078125zm1.5426636 -10.1875l0 -1.90625l1.671875 0l0 1.90625l-1.671875 0zm0 11.6875l0 -9.859375l1.671875 0l0 9.859375l-1.671875 0zm7.7854614 -1.5l0.234375 1.484375q-0.703125 0.140625 -1.265625 0.140625q-0.90625 0 -1.40625 -0.28125q-0.5 -0.296875 -0.703125 -0.75q-0.203125 -0.46875 -0.203125 -1.984375l0 -5.65625l-1.234375 0l0 -1.3125l1.234375 0l0 -2.4375l1.65625 -1.0l0 3.4375l1.6875 0l0 1.3125l-1.6875 0l0 5.75q0 0.71875 0.078125 0.921875q0.09375 0.203125 0.296875 0.328125q0.203125 0.125 0.578125 0.125q0.265625 0 0.734375 -0.078125zm7.9801636 1.5l0 -1.453125q-1.140625 1.671875 -3.125 1.671875q-0.859375 0 -1.625 -0.328125q-0.75 -0.34375 -1.125 -0.84375q-0.359375 -0.5 -0.515625 -1.234375q-0.09375 -0.5 -0.09375 -1.5625l0 -6.109375l1.671875 0l0 5.46875q0 1.3125 0.09375 1.765625q0.15625 0.65625 0.671875 1.03125q0.515625 0.375 1.265625 0.375q0.75 0 1.40625 -0.375q0.65625 -0.390625 0.921875 -1.046875q0.28125 -0.671875 0.28125 -1.9375l0 -5.28125l1.671875 0l0 9.859375l-1.5 0zm10.313232 0l0 -1.25q-0.9375 1.46875 -2.75 1.46875q-1.171875 0 -2.171875 -0.640625q-0.984375 -0.65625 -1.53125 -1.8125q-0.53125 -1.171875 -0.53125 -2.6875q0 -1.46875 0.484375 -2.671875q0.5 -1.203125 1.46875 -1.84375q0.984375 -0.640625 2.203125 -0.640625q0.890625 0 1.578125 0.375q0.703125 0.375 1.140625 0.984375l0 -4.875l1.65625 0l0 13.59375l-1.546875 0zm-5.28125 -4.921875q0 1.890625 0.796875 2.828125q0.8125 0.9375 1.890625 0.9375q1.09375 0 1.859375 -0.890625q0.765625 -0.890625 0.765625 -2.734375q0 -2.015625 -0.78125 -2.953125q-0.78125 -0.953125 -1.921875 -0.953125q-1.109375 0 -1.859375 0.90625q-0.75 0.90625 -0.75 2.859375zm16.016327 1.75l1.71875 0.21875q-0.40625 1.5 -1.515625 2.34375q-1.09375 0.828125 -2.8125 0.828125q-2.15625 0 -3.421875 -1.328125q-1.265625 -1.328125 -1.265625 -3.734375q0 -2.484375 1.265625 -3.859375q1.28125 -1.375 3.328125 -1.375q1.984375 0 3.234375 1.34375q1.25 1.34375 1.25 3.796875q0 0.140625 -0.015625 0.4375l-7.34375 0q0.09375 1.625 0.921875 2.484375q0.828125 0.859375 2.0625 0.859375q0.90625 0 1.546875 -0.46875q0.65625 -0.484375 1.046875 -1.546875zm-5.484375 -2.703125l5.5 0q-0.109375 -1.234375 -0.625 -1.859375q-0.796875 -0.96875 -2.078125 -0.96875q-1.140625 0 -1.9375 0.78125q-0.78125 0.765625 -0.859375 2.046875z" fill-rule="nonzero"></path></g></svg>

