<?xml version="1.0" standalone="yes"?>

<svg version="1.1" viewBox="0.0 0.0 833.3044619422573 466.6089238845144" fill="none" stroke="none" stroke-linecap="square" stroke-miterlimit="10" xmlns="http://www.w3.org/2000/svg" xmlns:xlink="http://www.w3.org/1999/xlink"><clipPath id="p.0"><path d="m0 0l833.30444 0l0 466.60892l-833.30444 0l0 -466.60892z" clip-rule="nonzero"></path></clipPath><g clip-path="url(#p.0)"><path fill="#000000" fill-opacity="0.0" d="m0 0l833.30444 0l0 466.60892l-833.30444 0z" fill-rule="evenodd"></path><path fill="#cfe2f3" d="m93.18372 64.27559l678.80316 0l0 368.75592l-678.80316 0z" fill-rule="evenodd"></path><path stroke="#000000" stroke-width="1.0" stroke-linejoin="round" stroke-linecap="butt" d="m93.18372 64.27559l678.80316 0l0 368.75592l-678.80316 0z" fill-rule="evenodd"></path><path fill="#000000" fill-opacity="0.0" d="m92.66404 41.61155l679.8425 0" fill-rule="evenodd"></path><path stroke="#000000" stroke-width="1.0" stroke-linejoin="round" stroke-linecap="butt" d="m98.66404 41.61155l667.8425 0" fill-rule="evenodd"></path><path fill="#000000" stroke="#000000" stroke-width="1.0" stroke-linecap="butt" d="m98.66404 39.959816l-4.5380936 1.6517334l4.5380936 1.6517334z" fill-rule="evenodd"></path><path fill="#000000" stroke="#000000" stroke-width="1.0" stroke-linecap="butt" d="m766.5066 43.263283l4.538086 -1.6517334l-4.538086 -1.6517334z" fill-rule="evenodd"></path><path fill="#000000" fill-opacity="0.0" d="m367.4357 1.4409449l130.2992 0l0 47.37008l-130.2992 0z" fill-rule="evenodd"></path><path fill="#000000" d="m391.3783 24.767193l1.671875 -0.21875q0.28125 1.421875 0.96875 2.046875q0.703125 0.625 1.6875 0.625q1.1875 0 2.0 -0.8125q0.8125 -0.828125 0.8125 -2.03125q0 -1.140625 -0.765625 -1.890625q-0.75 -0.75 -1.90625 -0.75q-0.46875 0 -1.171875 0.1875l0.1875 -1.46875q0.15625 0.015625 0.265625 0.015625q1.0625 0 1.90625 -0.546875q0.859375 -0.5625 0.859375 -1.71875q0 -0.921875 -0.625 -1.515625q-0.609375 -0.609375 -1.59375 -0.609375q-0.96875 0 -1.625 0.609375q-0.640625 0.609375 -0.828125 1.84375l-1.671875 -0.296875q0.296875 -1.6875 1.375 -2.609375q1.09375 -0.921875 2.71875 -0.921875q1.109375 0 2.046875 0.484375q0.9375 0.46875 1.421875 1.296875q0.5 0.828125 0.5 1.75q0 0.890625 -0.46875 1.609375q-0.46875 0.71875 -1.40625 1.15625q1.21875 0.265625 1.875 1.15625q0.671875 0.875 0.671875 2.1875q0 1.78125 -1.296875 3.015625q-1.296875 1.234375 -3.28125 1.234375q-1.796875 0 -2.984375 -1.0625q-1.171875 -1.0625 -1.34375 -2.765625zm19.031952 -6.671875l-1.65625 0.125q-0.21875 -0.984375 -0.640625 -1.421875q-0.671875 -0.71875 -1.65625 -0.71875q-0.8125 0 -1.40625 0.4375q-0.796875 0.578125 -1.25 1.6875q-0.453125 1.09375 -0.46875 3.140625q0.609375 -0.921875 1.46875 -1.359375q0.875 -0.453125 1.828125 -0.453125q1.671875 0 2.84375 1.234375q1.171875 1.234375 1.171875 3.171875q0 1.28125 -0.546875 2.390625q-0.546875 1.09375 -1.515625 1.6875q-0.96875 0.578125 -2.1875 0.578125q-2.09375 0 -3.40625 -1.53125q-1.3125 -1.546875 -1.3125 -5.0625q0 -3.953125 1.453125 -5.734375q1.265625 -1.5625 3.421875 -1.5625q1.609375 0 2.625 0.90625q1.03125 0.890625 1.234375 2.484375zm-6.8125 5.859375q0 0.859375 0.359375 1.65625q0.375 0.78125 1.03125 1.203125q0.65625 0.40625 1.375 0.40625q1.0625 0 1.8125 -0.84375q0.765625 -0.859375 0.765625 -2.328125q0 -1.40625 -0.75 -2.21875q-0.75 -0.8125 -1.890625 -0.8125q-1.125 0 -1.921875 0.8125q-0.78125 0.8125 -0.78125 2.125zm8.516357 -2.296875q0 -2.421875 0.5 -3.890625q0.5 -1.46875 1.46875 -2.265625q0.984375 -0.796875 2.46875 -0.796875q1.09375 0 1.921875 0.4375q0.828125 0.4375 1.359375 1.28125q0.546875 0.828125 0.84375 2.015625q0.3125 1.1875 0.3125 3.21875q0 2.390625 -0.5 3.859375q-0.484375 1.46875 -1.46875 2.28125q-0.96875 0.796875 -2.46875 0.796875q-1.96875 0 -3.078125 -1.40625q-1.359375 -1.703125 -1.359375 -5.53125zm1.71875 0q0 3.34375 0.78125 4.453125q0.796875 1.109375 1.9375 1.109375q1.15625 0 1.9375 -1.109375q0.78125 -1.125 0.78125 -4.453125q0 -3.359375 -0.78125 -4.46875q-0.78125 -1.109375 -1.953125 -1.109375q-1.15625 0 -1.828125 0.984375q-0.875 1.234375 -0.875 4.59375zm14.309021 10.484375l0 -13.640625l1.53125 0l0 1.28125q0.53125 -0.75 1.203125 -1.125q0.6875 -0.375 1.640625 -0.375q1.265625 0 2.234375 0.65625q0.96875 0.640625 1.453125 1.828125q0.5 1.1875 0.5 2.59375q0 1.515625 -0.546875 2.734375q-0.546875 1.203125 -1.578125 1.84375q-1.03125 0.640625 -2.171875 0.640625q-0.84375 0 -1.515625 -0.34375q-0.65625 -0.359375 -1.078125 -0.890625l0 4.796875l-1.671875 0zm1.515625 -8.65625q0 1.90625 0.765625 2.8125q0.78125 0.90625 1.875 0.90625q1.109375 0 1.890625 -0.9375q0.796875 -0.9375 0.796875 -2.921875q0 -1.875 -0.78125 -2.8125q-0.765625 -0.9375 -1.84375 -0.9375q-1.0625 0 -1.890625 1.0q-0.8125 1.0 -0.8125 2.890625zm8.875702 -6.8125l0 -1.90625l1.671875 0l0 1.90625l-1.671875 0zm0 11.6875l0 -9.859375l1.671875 0l0 9.859375l-1.671875 0zm3.0198364 0l3.59375 -5.125l-3.328125 -4.734375l2.09375 0l1.515625 2.3125q0.421875 0.65625 0.671875 1.109375q0.421875 -0.609375 0.765625 -1.09375l1.65625 -2.328125l1.984375 0l-3.390625 4.640625l3.65625 5.21875l-2.046875 0l-2.03125 -3.0625l-0.53125 -0.828125l-2.59375 3.890625l-2.015625 0zm17.1875 -3.171875l1.71875 0.21875q-0.40625 1.5 -1.515625 2.34375q-1.09375 0.828125 -2.8125 0.828125q-2.15625 0 -3.421875 -1.328125q-1.265625 -1.328125 -1.265625 -3.734375q0 -2.484375 1.265625 -3.859375q1.28125 -1.375 3.328125 -1.375q1.984375 0 3.234375 1.34375q1.25 1.34375 1.25 3.796875q0 0.140625 -0.015625 0.4375l-7.34375 0q0.09375 1.625 0.921875 2.484375q0.828125 0.859375 2.0625 0.859375q0.90625 0 1.546875 -0.46875q0.65625 -0.484375 1.046875 -1.546875zm-5.484375 -2.703125l5.5 0q-0.109375 -1.234375 -0.625 -1.859375q-0.796875 -0.96875 -2.078125 -0.96875q-1.140625 0 -1.9375 0.78125q-0.78125 0.765625 -0.859375 2.046875zm9.078827 5.875l0 -13.59375l1.671875 0l0 13.59375l-1.671875 0zm3.5042114 -2.9375l1.65625 -0.265625q0.140625 1.0 0.765625 1.53125q0.640625 0.515625 1.78125 0.515625q1.15625 0 1.703125 -0.46875q0.5625 -0.46875 0.5625 -1.09375q0 -0.5625 -0.484375 -0.890625q-0.34375 -0.21875 -1.703125 -0.5625q-1.84375 -0.46875 -2.5625 -0.796875q-0.703125 -0.34375 -1.078125 -0.9375q-0.359375 -0.609375 -0.359375 -1.328125q0 -0.65625 0.296875 -1.21875q0.3125 -0.5625 0.828125 -0.9375q0.390625 -0.28125 1.0625 -0.484375q0.671875 -0.203125 1.4375 -0.203125q1.171875 0 2.046875 0.34375q0.875 0.328125 1.28125 0.90625q0.421875 0.5625 0.578125 1.515625l-1.625 0.21875q-0.109375 -0.75 -0.65625 -1.171875q-0.53125 -0.4375 -1.5 -0.4375q-1.15625 0 -1.640625 0.390625q-0.484375 0.375 -0.484375 0.875q0 0.328125 0.203125 0.59375q0.203125 0.265625 0.640625 0.4375q0.25 0.09375 1.46875 0.4375q1.765625 0.46875 2.46875 0.765625q0.703125 0.296875 1.09375 0.875q0.40625 0.578125 0.40625 1.4375q0 0.828125 -0.484375 1.578125q-0.484375 0.734375 -1.40625 1.140625q-0.921875 0.390625 -2.078125 0.390625q-1.921875 0 -2.9375 -0.796875q-1.0 -0.796875 -1.28125 -2.359375z" fill-rule="nonzero"></path><path fill="#000000" fill-opacity="0.0" d="m71.5538 66.33596l1.0393753 363.59055" fill-rule="evenodd"></path><path stroke="#000000" stroke-width="1.0" stroke-linejoin="round" stroke-linecap="butt" d="m71.57096 72.33593l1.0050659 351.5906" fill-rule="evenodd"></path><path fill="#000000" stroke="#000000" stroke-width="1.0" stroke-linecap="butt" d="m73.22269 72.331215l-1.6647034 -4.5333633l-1.6387482 4.542801z" fill-rule="evenodd"></path><path fill="#000000" stroke="#000000" stroke-width="1.0" stroke-linecap="butt" d="m70.9243 423.93124l1.6646957 4.5333557l1.6387558 -4.5427856z" fill-rule="evenodd"></path><path fill="#000000" fill-opacity="0.0" d="m3.32021 210.5433l74.173225 0l0 76.22049l-74.173225 0z" fill-rule="evenodd"></path><path fill="#000000" d="m31.921373 244.57355l-1.671875 0l0 -10.640625q-0.59375 0.578125 -1.578125 1.15625q-0.984375 0.5625 -1.765625 0.859375l0 -1.625q1.40625 -0.65625 2.453125 -1.59375q1.046875 -0.9375 1.484375 -1.8125l1.078125 0l0 13.65625zm6.656969 -7.375q-1.046875 -0.375 -1.546875 -1.078125q-0.5 -0.71875 -0.5 -1.703125q0 -1.484375 1.0625 -2.484375q1.078125 -1.015625 2.84375 -1.015625q1.78125 0 2.859375 1.03125q1.09375 1.03125 1.09375 2.515625q0 0.953125 -0.5 1.65625q-0.484375 0.703125 -1.5 1.078125q1.25 0.40625 1.90625 1.3125q0.65625 0.90625 0.65625 2.171875q0 1.75 -1.234375 2.9375q-1.234375 1.1875 -3.25 1.1875q-2.015625 0 -3.25 -1.1875q-1.234375 -1.203125 -1.234375 -2.984375q0 -1.328125 0.671875 -2.21875q0.671875 -0.890625 1.921875 -1.21875zm-0.328125 -2.828125q0 0.96875 0.609375 1.578125q0.625 0.609375 1.625 0.609375q0.953125 0 1.5625 -0.609375q0.625 -0.609375 0.625 -1.484375q0 -0.921875 -0.640625 -1.546875q-0.625 -0.625 -1.578125 -0.625q-0.953125 0 -1.578125 0.609375q-0.625 0.609375 -0.625 1.46875zm-0.546875 6.28125q0 0.71875 0.328125 1.390625q0.34375 0.65625 1.015625 1.03125q0.671875 0.359375 1.4375 0.359375q1.203125 0 1.984375 -0.765625q0.78125 -0.78125 0.78125 -1.96875q0 -1.203125 -0.8125 -1.984375q-0.796875 -0.796875 -2.0 -0.796875q-1.1875 0 -1.96875 0.78125q-0.765625 0.78125 -0.765625 1.953125zm8.672592 -2.78125q0 -2.421875 0.5 -3.890625q0.5 -1.46875 1.46875 -2.265625q0.984375 -0.796875 2.46875 -0.796875q1.09375 0 1.921875 0.4375q0.828125 0.4375 1.359375 1.28125q0.546875 0.828125 0.84375 2.015625q0.3125 1.1875 0.3125 3.21875q0 2.390625 -0.5 3.859375q-0.484375 1.46875 -1.46875 2.28125q-0.96875 0.796875 -2.46875 0.796875q-1.96875 0 -3.078125 -1.40625q-1.359375 -1.703125 -1.359375 -5.53125zm1.71875 0q0 3.34375 0.78125 4.453125q0.796875 1.109375 1.9375 1.109375q1.15625 0 1.9375 -1.109375q0.78125 -1.125 0.78125 -4.453125q0 -3.359375 -0.78125 -4.46875q-0.78125 -1.109375 -1.953125 -1.109375q-1.15625 0 -1.828125 0.984375q-0.875 1.234375 -0.875 4.59375z" fill-rule="nonzero"></path><path fill="#000000" d="m17.80816 270.3548l0 -13.640625l1.53125 0l0 1.28125q0.53125 -0.75 1.203125 -1.125q0.6875 -0.375 1.640625 -0.375q1.265625 0 2.234375 0.65625q0.96875 0.640625 1.453125 1.828125q0.5 1.1875 0.5 2.59375q0 1.515625 -0.546875 2.734375q-0.546875 1.203125 -1.578125 1.84375q-1.03125 0.640625 -2.171875 0.640625q-0.84375 0 -1.515625 -0.34375q-0.65625 -0.359375 -1.078125 -0.890625l0 4.796875l-1.671875 0zm1.515625 -8.65625q0 1.90625 0.765625 2.8125q0.78125 0.90625 1.875 0.90625q1.109375 0 1.890625 -0.9375q0.796875 -0.9375 0.796875 -2.921875q0 -1.875 -0.78125 -2.8125q-0.765625 -0.9375 -1.84375 -0.9375q-1.0625 0 -1.890625 1.0q-0.8125 1.0 -0.8125 2.890625zm8.875717 -6.8125l0 -1.90625l1.671875 0l0 1.90625l-1.671875 0zm0 11.6875l0 -9.859375l1.671875 0l0 9.859375l-1.671875 0zm3.0198212 0l3.593752 -5.125l-3.328127 -4.734375l2.093752 0l1.515625 2.3125q0.421875 0.65625 0.671875 1.109375q0.421875 -0.609375 0.765625 -1.09375l1.65625 -2.328125l1.984375 0l-3.390625 4.640625l3.65625 5.21875l-2.046875 0l-2.03125 -3.0625l-0.53125 -0.828125l-2.59375 3.890625l-2.015627 0zm17.187502 -3.171875l1.71875 0.21875q-0.40625 1.5 -1.515625 2.34375q-1.09375 0.828125 -2.8125 0.828125q-2.15625 0 -3.421875 -1.328125q-1.265625 -1.328125 -1.265625 -3.734375q0 -2.484375 1.265625 -3.859375q1.28125 -1.375 3.328125 -1.375q1.984375 0 3.234375 1.34375q1.25 1.34375 1.25 3.796875q0 0.140625 -0.015625 0.4375l-7.34375 0q0.09375 1.625 0.921875 2.484375q0.828125 0.859375 2.0625 0.859375q0.90625 0 1.546875 -0.46875q0.65625 -0.484375 1.046875 -1.546875zm-5.484375 -2.703125l5.5 0q-0.109375 -1.234375 -0.625 -1.859375q-0.796875 -0.96875 -2.078125 -0.96875q-1.140625 0 -1.9375 0.78125q-0.78125 0.765625 -0.859375 2.046875zm9.078842 5.875l0 -13.59375l1.671875 0l0 13.59375l-1.671875 0zm3.5041962 -2.9375l1.65625 -0.265625q0.140625 1.0 0.765625 1.53125q0.640625 0.515625 1.78125 0.515625q1.15625 0 1.703125 -0.46875q0.5625 -0.46875 0.5625 -1.09375q0 -0.5625 -0.484375 -0.890625q-0.34375 -0.21875 -1.703125 -0.5625q-1.84375 -0.46875 -2.5625 -0.796875q-0.703125 -0.34375 -1.078125 -0.9375q-0.359375 -0.609375 -0.359375 -1.328125q0 -0.65625 0.296875 -1.21875q0.3125 -0.5625 0.828125 -0.9375q0.390625 -0.28125 1.0625 -0.484375q0.671875 -0.203125 1.4375 -0.203125q1.171875 0 2.046875 0.34375q0.875 0.328125 1.28125 0.90625q0.421875 0.5625 0.578125 1.515625l-1.625 0.21875q-0.109375 -0.75 -0.65625 -1.171875q-0.53125 -0.4375 -1.5 -0.4375q-1.15625 0 -1.640625 0.390625q-0.484375 0.375 -0.484375 0.875q0 0.328125 0.203125 0.59375q0.203125 0.265625 0.640625 0.4375q0.25 0.09375 1.46875 0.4375q1.765625 0.46875 2.46875 0.765625q0.703125 0.296875 1.09375 0.875q0.40625 0.578125 0.40625 1.4375q0 0.828125 -0.484375 1.578125q-0.484375 0.734375 -1.40625 1.140625q-0.921875 0.390625 -2.078125 0.390625q-1.921875 0 -2.9375 -0.796875q-1.0 -0.796875 -1.28125 -2.359375z" fill-rule="nonzero"></path><path fill="#000000" fill-opacity="0.0" d="m432.5853 64.27559l0 368.75592" fill-rule="evenodd"></path><path stroke="#000000" stroke-width="1.0" stroke-linejoin="round" stroke-linecap="butt" d="m432.5853 64.27559l0 368.75592" fill-rule="evenodd"></path><path fill="#000000" fill-opacity="0.0" d="m93.18372 248.65355l678.80316 0" fill-rule="evenodd"></path><path stroke="#000000" stroke-width="1.0" stroke-linejoin="round" stroke-linecap="butt" d="m93.18372 248.65355l678.80316 0" fill-rule="evenodd"></path><path fill="#000000" fill-opacity="0.0" d="m403.7454 244.5328l38.11026 0l0 47.370087l-38.11026 0z" fill-rule="evenodd"></path><path fill="#000000" d="m413.52664 264.7497q0 -2.421875 0.5 -3.890625q0.5 -1.46875 1.46875 -2.265625q0.984375 -0.796875 2.46875 -0.796875q1.09375 0 1.921875 0.4375q0.828125 0.4375 1.359375 1.28125q0.546875 0.828125 0.84375 2.015625q0.3125 1.1875 0.3125 3.21875q0 2.390625 -0.5 3.859375q-0.484375 1.46875 -1.46875 2.28125q-0.96875 0.796875 -2.46875 0.796875q-1.96875 0 -3.078125 -1.40625q-1.359375 -1.703125 -1.359375 -5.53125zm1.71875 0q0 3.34375 0.78125 4.453125q0.796875 1.109375 1.9375 1.109375q1.15625 0 1.9375 -1.109375q0.78125 -1.125 0.78125 -4.453125q0 -3.359375 -0.78125 -4.46875q-0.78125 -1.109375 -1.953125 -1.109375q-1.15625 0 -1.828125 0.984375q-0.875 1.234375 -0.875 4.59375z" fill-rule="nonzero"></path><path fill="#000000" fill-opacity="0.0" d="m92.66404 210.5433l63.874016 0l0 36.06299l-63.874016 0z" fill-rule="evenodd"></path><path fill="#000000" d="m111.69529 231.54143l-8.96875 0l0 -1.5625l8.96875 0l0 1.5625zm7.9418335 5.921875l-1.671875 0l0 -10.640625q-0.59375 0.578125 -1.578125 1.15625q-0.984375 0.5625 -1.765625 0.859375l0 -1.625q1.40625 -0.65625 2.453125 -1.59375q1.046875 -0.9375 1.484375 -1.8125l1.078125 0l0 13.65625zm6.656967 -7.375q-1.046875 -0.375 -1.546875 -1.078125q-0.5 -0.71875 -0.5 -1.703125q0 -1.484375 1.0625 -2.484375q1.078125 -1.015625 2.8437576 -1.015625q1.78125 0 2.859375 1.03125q1.09375 1.03125 1.09375 2.515625q0 0.953125 -0.5 1.65625q-0.484375 0.703125 -1.5 1.078125q1.25 0.40625 1.90625 1.3125q0.65625 0.90625 0.65625 2.171875q0 1.75 -1.234375 2.9375q-1.234375 1.1875 -3.25 1.1875q-2.0156326 0 -3.2500076 -1.1875q-1.234375 -1.203125 -1.234375 -2.984375q0 -1.328125 0.671875 -2.21875q0.671875 -0.890625 1.921875 -1.21875zm-0.328125 -2.828125q0 0.96875 0.609375 1.578125q0.625 0.609375 1.6250076 0.609375q0.953125 0 1.5625 -0.609375q0.625 -0.609375 0.625 -1.484375q0 -0.921875 -0.640625 -1.546875q-0.625 -0.625 -1.578125 -0.625q-0.9531326 0 -1.5781326 0.609375q-0.625 0.609375 -0.625 1.46875zm-0.546875 6.28125q0 0.71875 0.328125 1.390625q0.34375 0.65625 1.015625 1.03125q0.671875 0.359375 1.4375076 0.359375q1.203125 0 1.984375 -0.765625q0.78125 -0.78125 0.78125 -1.96875q0 -1.203125 -0.8125 -1.984375q-0.796875 -0.796875 -2.0 -0.796875q-1.1875076 0 -1.9687576 0.78125q-0.765625 0.78125 -0.765625 1.953125zm8.6726 -2.78125q0 -2.421875 0.5 -3.890625q0.5 -1.46875 1.46875 -2.265625q0.984375 -0.796875 2.46875 -0.796875q1.09375 0 1.921875 0.4375q0.828125 0.4375 1.359375 1.28125q0.546875 0.828125 0.84375 2.015625q0.3125 1.1875 0.3125 3.21875q0 2.390625 -0.5 3.859375q-0.484375 1.46875 -1.46875 2.28125q-0.96875 0.796875 -2.46875 0.796875q-1.96875 0 -3.078125 -1.40625q-1.359375 -1.703125 -1.359375 -5.53125zm1.71875 0q0 3.34375 0.78125 4.453125q0.796875 1.109375 1.9375 1.109375q1.15625 0 1.9375 -1.109375q0.78125 -1.125 0.78125 -4.453125q0 -3.359375 -0.78125 -4.46875q-0.78125 -1.109375 -1.953125 -1.109375q-1.15625 0 -1.828125 0.984375q-0.875 1.234375 -0.875 4.59375z" fill-rule="nonzero"></path><path fill="#000000" fill-opacity="0.0" d="m719.96326 210.5433l52.031494 0l0 36.06299l-52.031494 0z" fill-rule="evenodd"></path><path fill="#000000" d="m736.0414 237.4633l-1.671875 0l0 -10.640625q-0.59375 0.578125 -1.578125 1.15625q-0.984375 0.5625 -1.765625 0.859375l0 -1.625q1.40625 -0.65625 2.453125 -1.59375q1.046875 -0.9375 1.484375 -1.8125l1.078125 0l0 13.65625zm4.2038574 -11.8125l0 -1.609375l8.796875 0l0 1.296875q-1.296875 1.375 -2.578125 3.671875q-1.265625 2.296875 -1.96875 4.71875q-0.5 1.703125 -0.640625 3.734375l-1.71875 0q0.03125 -1.609375 0.625 -3.875q0.609375 -2.28125 1.734375 -4.390625q1.140625 -2.109375 2.40625 -3.546875l-6.65625 0zm10.516296 8.671875l1.59375 -0.15625q0.203125 1.140625 0.78125 1.65625q0.578125 0.5 1.484375 0.5q0.765625 0 1.34375 -0.34375q0.578125 -0.359375 0.953125 -0.953125q0.375 -0.59375 0.625 -1.59375q0.25 -1.0 0.25 -2.03125q0 -0.109375 -0.015625 -0.34375q-0.5 0.796875 -1.375 1.296875q-0.859375 0.5 -1.875 0.5q-1.6875 0 -2.859375 -1.21875q-1.171875 -1.234375 -1.171875 -3.234375q0 -2.078125 1.21875 -3.328125q1.234375 -1.265625 3.0625 -1.265625q1.328125 0 2.421875 0.71875q1.109375 0.703125 1.671875 2.03125q0.578125 1.328125 0.578125 3.828125q0 2.609375 -0.578125 4.15625q-0.5625 1.546875 -1.6875 2.359375q-1.109375 0.796875 -2.609375 0.796875q-1.59375 0 -2.609375 -0.890625q-1.0 -0.890625 -1.203125 -2.484375zm6.828125 -6.0q0 -1.4375 -0.765625 -2.28125q-0.765625 -0.859375 -1.84375 -0.859375q-1.109375 0 -1.9375 0.921875q-0.828125 0.90625 -0.828125 2.34375q0 1.3125 0.78125 2.125q0.796875 0.796875 1.9375 0.796875q1.171875 0 1.90625 -0.796875q0.75 -0.8125 0.75 -2.25z" fill-rule="nonzero"></path><path fill="#000000" fill-opacity="0.0" d="m432.5853 390.7979l55.62204 0l0 42.236206l-55.62204 0z" fill-rule="evenodd"></path><path fill="#000000" d="m451.61655 411.79602l-8.96875 0l0 -1.5625l8.96875 0l0 1.5625zm4.2230835 -1.453125q-1.046875 -0.375 -1.546875 -1.078125q-0.5 -0.71875 -0.5 -1.703125q0 -1.484375 1.0625 -2.484375q1.078125 -1.015625 2.84375 -1.015625q1.78125 0 2.859375 1.03125q1.09375 1.03125 1.09375 2.515625q0 0.953125 -0.5 1.65625q-0.484375 0.703125 -1.5 1.078125q1.25 0.40625 1.90625 1.3125q0.65625 0.90625 0.65625 2.171875q0 1.75 -1.234375 2.9375q-1.234375 1.1875 -3.25 1.1875q-2.015625 0 -3.25 -1.1875q-1.234375 -1.203125 -1.234375 -2.984375q0 -1.328125 0.671875 -2.21875q0.671875 -0.890625 1.921875 -1.21875zm-0.328125 -2.828125q0 0.96875 0.609375 1.578125q0.625 0.609375 1.625 0.609375q0.953125 0 1.5625 -0.609375q0.625 -0.609375 0.625 -1.484375q0 -0.921875 -0.640625 -1.546875q-0.625 -0.625 -1.578125 -0.625q-0.953125 0 -1.578125 0.609375q-0.625 0.609375 -0.625 1.46875zm-0.546875 6.28125q0 0.71875 0.328125 1.390625q0.34375 0.65625 1.015625 1.03125q0.671875 0.359375 1.4375 0.359375q1.203125 0 1.984375 -0.765625q0.78125 -0.78125 0.78125 -1.96875q0 -1.203125 -0.8125 -1.984375q-0.796875 -0.796875 -2.0 -0.796875q-1.1875 0 -1.96875 0.78125q-0.765625 0.78125 -0.765625 1.953125zm8.938232 0.78125l1.59375 -0.15625q0.203125 1.140625 0.78125 1.65625q0.578125 0.5 1.484375 0.5q0.765625 0 1.34375 -0.34375q0.578125 -0.359375 0.953125 -0.953125q0.375 -0.59375 0.625 -1.59375q0.25 -1.0 0.25 -2.03125q0 -0.109375 -0.015625 -0.34375q-0.5 0.796875 -1.375 1.296875q-0.859375 0.5 -1.875 0.5q-1.6875 0 -2.859375 -1.21875q-1.171875 -1.234375 -1.171875 -3.234375q0 -2.078125 1.21875 -3.328125q1.234375 -1.265625 3.0625 -1.265625q1.328125 0 2.421875 0.71875q1.109375 0.703125 1.671875 2.03125q0.578125 1.328125 0.578125 3.828125q0 2.609375 -0.578125 4.15625q-0.5625 1.546875 -1.6875 2.359375q-1.109375 0.796875 -2.609375 0.796875q-1.59375 0 -2.609375 -0.890625q-1.0 -0.890625 -1.203125 -2.484375zm6.828125 -6.0q0 -1.4375 -0.765625 -2.28125q-0.765625 -0.859375 -1.84375 -0.859375q-1.109375 0 -1.9375 0.921875q-0.828125 0.90625 -0.828125 2.34375q0 1.3125 0.78125 2.125q0.796875 0.796875 1.9375 0.796875q1.171875 0 1.90625 -0.796875q0.75 -0.8125 0.75 -2.25z" fill-rule="nonzero"></path><path fill="#000000" fill-opacity="0.0" d="m432.5853 64.27559l49.13385 0l0 47.37008l-49.13385 0z" fill-rule="evenodd"></path><path fill="#000000" d="m442.63217 88.05496l1.59375 -0.15625q0.203125 1.140625 0.78125 1.65625q0.578125 0.5 1.484375 0.5q0.765625 0 1.34375 -0.34375q0.578125 -0.359375 0.953125 -0.953125q0.375 -0.59375 0.625 -1.59375q0.25 -1.0 0.25 -2.03125q0 -0.109375 -0.015625 -0.34375q-0.5 0.796875 -1.375 1.296875q-0.859375 0.5 -1.875 0.5q-1.6875 0 -2.859375 -1.21875q-1.171875 -1.234375 -1.171875 -3.234375q0 -2.078125 1.21875 -3.328125q1.234375 -1.265625 3.0625 -1.265625q1.328125 0 2.421875 0.71875q1.109375 0.703125 1.671875 2.03125q0.578125 1.328125 0.578125 3.828125q0 2.609375 -0.578125 4.15625q-0.5625 1.546875 -1.6875 2.359375q-1.109375 0.796875 -2.609375 0.796875q-1.59375 0 -2.609375 -0.890625q-1.0 -0.890625 -1.203125 -2.484375zm6.828125 -6.0q0 -1.4375 -0.765625 -2.28125q-0.765625 -0.859375 -1.84375 -0.859375q-1.109375 0 -1.9375 0.921875q-0.828125 0.90625 -0.828125 2.34375q0 1.3125 0.78125 2.125q0.796875 0.796875 1.9375 0.796875q1.171875 0 1.90625 -0.796875q0.75 -0.8125 0.75 -2.25zm3.2819824 2.4375q0 -2.421875 0.5 -3.890625q0.5 -1.46875 1.46875 -2.265625q0.984375 -0.796875 2.46875 -0.796875q1.09375 0 1.921875 0.4375q0.828125 0.4375 1.359375 1.28125q0.546875 0.828125 0.84375 2.015625q0.3125 1.1875 0.3125 3.21875q0 2.390625 -0.5 3.859375q-0.484375 1.46875 -1.46875 2.28125q-0.96875 0.796875 -2.46875 0.796875q-1.96875 0 -3.078125 -1.40625q-1.359375 -1.703125 -1.359375 -5.53125zm1.71875 0q0 3.34375 0.78125 4.453125q0.796875 1.109375 1.9375 1.109375q1.15625 0 1.9375 -1.109375q0.78125 -1.125 0.78125 -4.453125q0 -3.359375 -0.78125 -4.46875q-0.78125 -1.109375 -1.953125 -1.109375q-1.15625 0 -1.828125 0.984375q-0.875 1.234375 -0.875 4.59375z" fill-rule="nonzero"></path><path fill="#93c47d" d="m367.0735 132.77165l17.51181 0l0 19.559052l-17.51181 0z" fill-rule="evenodd"></path><path stroke="#000000" stroke-width="1.0" stroke-linejoin="round" stroke-linecap="butt" d="m367.0735 132.77165l17.51181 0l0 19.559052l-17.51181 0z" fill-rule="evenodd"></path><path fill="#e06666" d="m191.6571 115.916145l4.025528 -3.861435l4.1493835 4.3257217l4.1493835 -4.3257217l4.025528 3.861435l-4.310135 4.4933014l4.310135 4.493309l-4.025528 3.861435l-4.1493835 -4.3257294l-4.1493835 4.3257294l-4.025528 -3.861435l4.310135 -4.493309z" fill-rule="evenodd"></path><path stroke="#000000" stroke-width="1.0" stroke-linejoin="round" stroke-linecap="butt" d="m191.6571 115.916145l4.025528 -3.861435l4.1493835 4.3257217l4.1493835 -4.3257217l4.025528 3.861435l-4.310135 4.4933014l4.310135 4.493309l-4.025528 3.861435l-4.1493835 -4.3257294l-4.1493835 4.3257294l-4.025528 -3.861435l4.310135 -4.493309z" fill-rule="evenodd"></path><path fill="#e06666" d="m154.10855 195.91614l4.025528 -3.8614197l4.1493835 4.325714l4.1493835 -4.325714l4.025528 3.8614197l-4.310135 4.4933167l4.310135 4.4933014l-4.025528 3.861435l-4.1493835 -4.3257294l-4.1493835 4.3257294l-4.025528 -3.861435l4.310135 -4.4933014z" fill-rule="evenodd"></path><path stroke="#000000" stroke-width="1.0" stroke-linejoin="round" stroke-linecap="butt" d="m154.10855 195.91614l4.025528 -3.8614197l4.1493835 4.325714l4.1493835 -4.325714l4.025528 3.8614197l-4.310135 4.4933167l4.310135 4.4933014l-4.025528 3.861435l-4.1493835 -4.3257294l-4.1493835 4.3257294l-4.025528 -3.861435l4.310135 -4.4933014z" fill-rule="evenodd"></path><path fill="#e06666" d="m519.33954 209.7193l4.0255127 -3.861435l4.149414 4.325714l4.149353 -4.325714l4.0255127 3.861435l-4.3101196 4.4933014l4.3101196 4.4933014l-4.0255127 3.861435l-4.149353 -4.3257294l-4.149414 4.3257294l-4.0255127 -3.861435l4.3101196 -4.4933014z" fill-rule="evenodd"></path><path stroke="#000000" stroke-width="1.0" stroke-linejoin="round" stroke-linecap="butt" d="m519.33954 209.7193l4.0255127 -3.861435l4.149414 4.325714l4.149353 -4.325714l4.0255127 3.861435l-4.3101196 4.4933014l4.3101196 4.4933014l-4.0255127 3.861435l-4.149353 -4.3257294l-4.149414 4.3257294l-4.0255127 -3.861435l4.3101196 -4.4933014z" fill-rule="evenodd"></path><path fill="#e06666" d="m495.623 123.191734l4.025543 -3.8614273l4.1493835 4.325714l4.1493835 -4.325714l4.0255127 3.8614273l-4.3101196 4.4933014l4.3101196 4.493309l-4.0255127 3.861435l-4.1493835 -4.3257294l-4.1493835 4.3257294l-4.025543 -3.861435l4.31015 -4.493309z" fill-rule="evenodd"></path><path stroke="#000000" stroke-width="1.0" stroke-linejoin="round" stroke-linecap="butt" d="m495.623 123.191734l4.025543 -3.8614273l4.1493835 4.325714l4.1493835 -4.325714l4.0255127 3.8614273l-4.3101196 4.4933014l4.3101196 4.493309l-4.0255127 3.861435l-4.1493835 -4.3257294l-4.1493835 4.3257294l-4.025543 -3.861435l4.31015 -4.493309z" fill-rule="evenodd"></path><path fill="#e06666" d="m322.0928 339.0579l4.025543 -3.8614502l4.1493835 4.325714l4.1493835 -4.325714l4.0255127 3.8614502l-4.31015 4.493286l4.31015 4.4933167l-4.0255127 3.8614197l-4.1493835 -4.325714l-4.1493835 4.325714l-4.025543 -3.8614197l4.31015 -4.4933167z" fill-rule="evenodd"></path><path stroke="#000000" stroke-width="1.0" stroke-linejoin="round" stroke-linecap="butt" d="m322.0928 339.0579l4.025543 -3.8614502l4.1493835 4.325714l4.1493835 -4.325714l4.0255127 3.8614502l-4.31015 4.493286l4.31015 4.4933167l-4.0255127 3.8614197l-4.1493835 -4.325714l-4.1493835 4.325714l-4.025543 -3.8614197l4.31015 -4.4933167z" fill-rule="evenodd"></path><path fill="#e06666" d="m271.6571 195.91614l4.025543 -3.8614197l4.1493835 4.325714l4.1493835 -4.325714l4.0255127 3.8614197l-4.3101196 4.4933167l4.3101196 4.4933014l-4.0255127 3.861435l-4.1493835 -4.3257294l-4.1493835 4.3257294l-4.025543 -3.861435l4.31015 -4.4933014z" fill-rule="evenodd"></path><path stroke="#000000" stroke-width="1.0" stroke-linejoin="round" stroke-linecap="butt" d="m271.6571 195.91614l4.025543 -3.8614197l4.1493835 4.325714l4.1493835 -4.325714l4.0255127 3.8614197l-4.3101196 4.4933167l4.3101196 4.4933014l-4.0255127 3.861435l-4.1493835 -4.3257294l-4.1493835 4.3257294l-4.025543 -3.861435l4.31015 -4.4933014z" fill-rule="evenodd"></path><path fill="#e06666" d="m625.1637 147.91614l4.0255127 -3.8614197l4.149353 4.325714l4.149414 -4.325714l4.0255127 3.8614197l-4.3101196 4.4933167l4.3101196 4.4933014l-4.0255127 3.861435l-4.149414 -4.3257294l-4.149353 4.3257294l-4.0255127 -3.861435l4.3101196 -4.4933014z" fill-rule="evenodd"></path><path stroke="#000000" stroke-width="1.0" stroke-linejoin="round" stroke-linecap="butt" d="m625.1637 147.91614l4.0255127 -3.8614197l4.149353 4.325714l4.149414 -4.325714l4.0255127 3.8614197l-4.3101196 4.4933167l4.3101196 4.4933014l-4.0255127 3.861435l-4.149414 -4.3257294l-4.149353 4.3257294l-4.0255127 -3.861435l4.3101196 -4.4933014z" fill-rule="evenodd"></path><path fill="#e06666" d="m244.41432 269.90826l4.025528 -3.8614197l4.1493835 4.325714l4.1493835 -4.325714l4.025543 3.8614197l-4.31015 4.4933167l4.31015 4.493286l-4.025543 3.8614502l-4.1493835 -4.325714l-4.1493835 4.325714l-4.025528 -3.8614502l4.310135 -4.493286z" fill-rule="evenodd"></path><path stroke="#000000" stroke-width="1.0" stroke-linejoin="round" stroke-linecap="butt" d="m244.41432 269.90826l4.025528 -3.8614197l4.1493835 4.325714l4.1493835 -4.325714l4.025543 3.8614197l-4.31015 4.4933167l4.31015 4.493286l-4.025543 3.8614502l-4.1493835 -4.325714l-4.1493835 4.325714l-4.025528 -3.8614502l4.310135 -4.493286z" fill-rule="evenodd"></path><path fill="#e06666" d="m657.51013 323.74292l4.0255127 -3.8614197l4.149414 4.325714l4.149353 -4.325714l4.0255127 3.8614197l-4.3101196 4.493286l4.3101196 4.4933167l-4.0255127 3.8614197l-4.149353 -4.325714l-4.149414 4.325714l-4.0255127 -3.8614197l4.3101196 -4.4933167z" fill-rule="evenodd"></path><path stroke="#000000" stroke-width="1.0" stroke-linejoin="round" stroke-linecap="butt" d="m657.51013 323.74292l4.0255127 -3.8614197l4.149414 4.325714l4.149353 -4.325714l4.0255127 3.8614197l-4.3101196 4.493286l4.3101196 4.4933167l-4.0255127 3.8614197l-4.149353 -4.325714l-4.149414 4.325714l-4.0255127 -3.8614197l4.3101196 -4.4933167z" fill-rule="evenodd"></path><path fill="#000000" fill-opacity="0.0" d="m361.02625 103.10236l29.606293 0l0 29.669289l-29.606293 0z" fill-rule="evenodd"></path><path fill="#000000" d="m374.40125 126.67861q0 -0.34375 0 -0.5q0 -0.984375 0.265625 -1.703125q0.21875 -0.546875 0.671875 -1.09375q0.328125 -0.390625 1.1875 -1.15625q0.875 -0.765625 1.125 -1.21875q0.265625 -0.453125 0.265625 -1.0q0 -0.96875 -0.765625 -1.703125q-0.75 -0.734375 -1.859375 -0.734375q-1.0625 0 -1.78125 0.671875q-0.703125 0.65625 -0.9375 2.078125l-1.71875 -0.203125q0.234375 -1.90625 1.375 -2.90625q1.15625 -1.015625 3.03125 -1.015625q2.0 0 3.1875 1.09375q1.1875 1.078125 1.1875 2.609375q0 0.890625 -0.421875 1.640625q-0.40625 0.75 -1.625 1.828125q-0.8125 0.734375 -1.0625 1.078125q-0.25 0.34375 -0.375 0.796875q-0.125 0.4375 -0.140625 1.4375l-1.609375 0zm-0.09375 3.3437424l0 -1.90625l1.890625 0l0 1.90625l-1.890625 0z" fill-rule="nonzero"></path><path fill="#000000" fill-opacity="0.0" d="m388.20602 32.244095l88.75592 0l0 32.031494l-88.75592 0z" fill-rule="evenodd"></path><path fill="#000000" d="m398.59665 59.164093l0 -13.59375l1.796875 0l0 11.984375l6.703125 0l0 1.609375l-8.5 0zm16.672607 -1.21875q-0.9375 0.796875 -1.796875 1.125q-0.859375 0.3125 -1.84375 0.3125q-1.609375 0 -2.484375 -0.78125q-0.875 -0.796875 -0.875 -2.03125q0 -0.734375 0.328125 -1.328125q0.328125 -0.59375 0.859375 -0.953125q0.53125 -0.359375 1.203125 -0.546875q0.5 -0.140625 1.484375 -0.25q2.03125 -0.25 2.984375 -0.578125q0 -0.34375 0 -0.4375q0 -1.015625 -0.46875 -1.4375q-0.640625 -0.5625 -1.90625 -0.5625q-1.171875 0 -1.734375 0.40625q-0.5625 0.40625 -0.828125 1.46875l-1.640625 -0.234375q0.234375 -1.046875 0.734375 -1.6875q0.515625 -0.640625 1.46875 -0.984375q0.96875 -0.359375 2.25 -0.359375q1.265625 0 2.046875 0.296875q0.78125 0.296875 1.15625 0.75q0.375 0.453125 0.515625 1.140625q0.09375 0.421875 0.09375 1.53125l0 2.234375q0 2.328125 0.09375 2.953125q0.109375 0.609375 0.4375 1.171875l-1.75 0q-0.265625 -0.515625 -0.328125 -1.21875zm-0.140625 -3.71875q-0.90625 0.359375 -2.734375 0.625q-1.03125 0.140625 -1.453125 0.328125q-0.421875 0.1875 -0.65625 0.546875q-0.234375 0.359375 -0.234375 0.796875q0 0.671875 0.5 1.125q0.515625 0.4375 1.484375 0.4375q0.96875 0 1.71875 -0.421875q0.75 -0.4375 1.109375 -1.15625q0.265625 -0.578125 0.265625 -1.671875l0 -0.609375zm7.735077 3.4375l0.234375 1.484375q-0.703125 0.140625 -1.265625 0.140625q-0.90625 0 -1.40625 -0.28125q-0.5 -0.296875 -0.703125 -0.75q-0.203125 -0.46875 -0.203125 -1.984375l0 -5.65625l-1.234375 0l0 -1.3125l1.234375 0l0 -2.4375l1.65625 -1.0l0 3.4375l1.6875 0l0 1.3125l-1.6875 0l0 5.75q0 0.71875 0.078125 0.921875q0.09375 0.203125 0.296875 0.328125q0.203125 0.125 0.578125 0.125q0.265625 0 0.734375 -0.078125zm1.5426941 -10.1875l0 -1.90625l1.671875 0l0 1.90625l-1.671875 0zm0 11.6875l0 -9.859375l1.671875 0l0 9.859375l-1.671875 0zm7.785431 -1.5l0.234375 1.484375q-0.703125 0.140625 -1.265625 0.140625q-0.90625 0 -1.40625 -0.28125q-0.5 -0.296875 -0.703125 -0.75q-0.203125 -0.46875 -0.203125 -1.984375l0 -5.65625l-1.234375 0l0 -1.3125l1.234375 0l0 -2.4375l1.65625 -1.0l0 3.4375l1.6875 0l0 1.3125l-1.6875 0l0 5.75q0 0.71875 0.078125 0.921875q0.09375 0.203125 0.296875 0.328125q0.203125 0.125 0.578125 0.125q0.265625 0 0.734375 -0.078125zm7.980194 1.5l0 -1.453125q-1.140625 1.671875 -3.125 1.671875q-0.859375 0 -1.625 -0.328125q-0.75 -0.34375 -1.125 -0.84375q-0.359375 -0.5 -0.515625 -1.234375q-0.09375 -0.5 -0.09375 -1.5625l0 -6.109375l1.671875 0l0 5.46875q0 1.3125 0.09375 1.765625q0.15625 0.65625 0.671875 1.03125q0.515625 0.375 1.265625 0.375q0.75 0 1.40625 -0.375q0.65625 -0.390625 0.921875 -1.046875q0.28125 -0.671875 0.28125 -1.9375l0 -5.28125l1.671875 0l0 9.859375l-1.5 0zm10.313202 0l0 -1.25q-0.9375 1.46875 -2.75 1.46875q-1.171875 0 -2.171875 -0.640625q-0.984375 -0.65625 -1.53125 -1.8125q-0.53125 -1.171875 -0.53125 -2.6875q0 -1.46875 0.484375 -2.671875q0.5 -1.203125 1.46875 -1.84375q0.984375 -0.640625 2.203125 -0.640625q0.890625 0 1.578125 0.375q0.703125 0.375 1.140625 0.984375l0 -4.875l1.65625 0l0 13.59375l-1.546875 0zm-5.28125 -4.921875q0 1.890625 0.796875 2.828125q0.8125 0.9375 1.890625 0.9375q1.09375 0 1.859375 -0.890625q0.765625 -0.890625 0.765625 -2.734375q0 -2.015625 -0.78125 -2.953125q-0.78125 -0.953125 -1.921875 -0.953125q-1.109375 0 -1.859375 0.90625q-0.75 0.90625 -0.75 2.859375zm16.016357 1.75l1.71875 0.21875q-0.40625 1.5 -1.515625 2.34375q-1.09375 0.828125 -2.8125 0.828125q-2.15625 0 -3.421875 -1.328125q-1.265625 -1.328125 -1.265625 -3.734375q0 -2.484375 1.265625 -3.859375q1.28125 -1.375 3.328125 -1.375q1.984375 0 3.234375 1.34375q1.25 1.34375 1.25 3.796875q0 0.140625 -0.015625 0.4375l-7.34375 0q0.09375 1.625 0.921875 2.484375q0.828125 0.859375 2.0625 0.859375q0.90625 0 1.546875 -0.46875q0.65625 -0.484375 1.046875 -1.546875zm-5.484375 -2.703125l5.5 0q-0.109375 -1.234375 -0.625 -1.859375q-0.796875 -0.96875 -2.078125 -0.96875q-1.140625 0 -1.9375 0.78125q-0.78125 0.765625 -0.859375 2.046875z" fill-rule="nonzero"></path><path fill="#000000" fill-opacity="0.0" d="m667.60895 241.67192l104.37793 0l0 42.23622l-104.37793 0z" fill-rule="evenodd"></path><path fill="#000000" d="m677.9996 268.59192l0 -13.59375l1.796875 0l0 11.984375l6.703125 0l0 1.609375l-8.5 0zm9.610046 -4.921875q0 -2.734375 1.53125 -4.0625q1.265625 -1.09375 3.09375 -1.09375q2.03125 0 3.3125 1.34375q1.296875 1.328125 1.296875 3.671875q0 1.90625 -0.578125 3.0q-0.5625 1.078125 -1.65625 1.6875q-1.078125 0.59375 -2.375 0.59375q-2.0625 0 -3.34375 -1.328125q-1.28125 -1.328125 -1.28125 -3.8125zm1.71875 0q0 1.890625 0.828125 2.828125q0.828125 0.9375 2.078125 0.9375q1.25 0 2.0625 -0.9375q0.828125 -0.953125 0.828125 -2.890625q0 -1.828125 -0.828125 -2.765625q-0.828125 -0.9375 -2.0625 -0.9375q-1.25 0 -2.078125 0.9375q-0.828125 0.9375 -0.828125 2.828125zm9.281982 4.921875l0 -9.859375l1.5 0l0 1.40625q1.09375 -1.625 3.140625 -1.625q0.890625 0 1.640625 0.328125q0.75 0.3125 1.109375 0.84375q0.375 0.515625 0.53125 1.21875q0.09375 0.46875 0.09375 1.625l0 6.0625l-1.671875 0l0 -6.0q0 -1.015625 -0.203125 -1.515625q-0.1875 -0.515625 -0.6875 -0.8125q-0.5 -0.296875 -1.171875 -0.296875q-1.0625 0 -1.84375 0.671875q-0.765625 0.671875 -0.765625 2.578125l0 5.375l-1.671875 0zm10.078857 0.8125l1.609375 0.25q0.109375 0.75 0.578125 1.09375q0.609375 0.453125 1.6875 0.453125q1.171875 0 1.796875 -0.46875q0.625 -0.453125 0.859375 -1.28125q0.125 -0.515625 0.109375 -2.15625q-1.09375 1.296875 -2.71875 1.296875q-2.03125 0 -3.15625 -1.46875q-1.109375 -1.46875 -1.109375 -3.515625q0 -1.40625 0.515625 -2.59375q0.515625 -1.203125 1.484375 -1.84375q0.96875 -0.65625 2.265625 -0.65625q1.75 0 2.875 1.40625l0 -1.1875l1.546875 0l0 8.515625q0 2.3125 -0.46875 3.265625q-0.46875 0.96875 -1.484375 1.515625q-1.015625 0.5625 -2.5 0.5625q-1.765625 0 -2.859375 -0.796875q-1.078125 -0.796875 -1.03125 -2.390625zm1.375 -5.921875q0 1.953125 0.765625 2.84375q0.78125 0.890625 1.9375 0.890625q1.140625 0 1.921875 -0.890625q0.78125 -0.890625 0.78125 -2.78125q0 -1.8125 -0.8125 -2.71875q-0.796875 -0.921875 -1.921875 -0.921875q-1.109375 0 -1.890625 0.90625q-0.78125 0.890625 -0.78125 2.671875zm9.313232 -6.578125l0 -1.90625l1.671875 0l0 1.90625l-1.671875 0zm0 11.6875l0 -9.859375l1.671875 0l0 9.859375l-1.671875 0zm7.7854004 -1.5l0.234375 1.484375q-0.703125 0.140625 -1.265625 0.140625q-0.90625 0 -1.40625 -0.28125q-0.5 -0.296875 -0.703125 -0.75q-0.203125 -0.46875 -0.203125 -1.984375l0 -5.65625l-1.234375 0l0 -1.3125l1.234375 0l0 -2.4375l1.65625 -1.0l0 3.4375l1.6875 0l0 1.3125l-1.6875 0l0 5.75q0 0.71875 0.078125 0.921875q0.09375 0.203125 0.296875 0.328125q0.203125 0.125 0.578125 0.125q0.265625 0 0.734375 -0.078125zm7.9802246 1.5l0 -1.453125q-1.140625 1.671875 -3.125 1.671875q-0.859375 0 -1.625 -0.328125q-0.75 -0.34375 -1.125 -0.84375q-0.359375 -0.5 -0.515625 -1.234375q-0.09375 -0.5 -0.09375 -1.5625l0 -6.109375l1.671875 0l0 5.46875q0 1.3125 0.09375 1.765625q0.15625 0.65625 0.671875 1.03125q0.515625 0.375 1.265625 0.375q0.75 0 1.40625 -0.375q0.65625 -0.390625 0.921875 -1.046875q0.28125 -0.671875 0.28125 -1.9375l0 -5.28125l1.671875 0l0 9.859375l-1.5 0zm10.313171 0l0 -1.25q-0.9375 1.46875 -2.75 1.46875q-1.171875 0 -2.171875 -0.640625q-0.984375 -0.65625 -1.53125 -1.8125q-0.53125 -1.171875 -0.53125 -2.6875q0 -1.46875 0.484375 -2.671875q0.5 -1.203125 1.46875 -1.84375q0.984375 -0.640625 2.203125 -0.640625q0.890625 0 1.578125 0.375q0.703125 0.375 1.140625 0.984375l0 -4.875l1.65625 0l0 13.59375l-1.546875 0zm-5.28125 -4.921875q0 1.890625 0.796875 2.828125q0.8125 0.9375 1.890625 0.9375q1.09375 0 1.859375 -0.890625q0.765625 -0.890625 0.765625 -2.734375q0 -2.015625 -0.78125 -2.953125q-0.78125 -0.953125 -1.921875 -0.953125q-1.109375 0 -1.859375 0.90625q-0.75 0.90625 -0.75 2.859375zm16.016357 1.75l1.71875 0.21875q-0.40625 1.5 -1.515625 2.34375q-1.09375 0.828125 -2.8125 0.828125q-2.15625 0 -3.421875 -1.328125q-1.265625 -1.328125 -1.265625 -3.734375q0 -2.484375 1.265625 -3.859375q1.28125 -1.375 3.328125 -1.375q1.984375 0 3.234375 1.34375q1.25 1.34375 1.25 3.796875q0 0.140625 -0.015625 0.4375l-7.34375 0q0.09375 1.625 0.921875 2.484375q0.828125 0.859375 2.0625 0.859375q0.90625 0 1.546875 -0.46875q0.65625 -0.484375 1.046875 -1.546875zm-5.484375 -2.703125l5.5 0q-0.109375 -1.234375 -0.625 -1.859375q-0.796875 -0.96875 -2.078125 -0.96875q-1.140625 0 -1.9375 0.78125q-0.78125 0.765625 -0.859375 2.046875z" fill-rule="nonzero"></path></g></svg>

